<svg width="155" height="44" viewBox="0 0 155 44" fill="none" xmlns="http://www.w3.org/2000/svg">
<path d="M51.9391 27.9999V10.8879H49.1331V27.9999H51.9391Z" fill="#262626"/>
<path d="M53.6565 22.296C53.6565 25.792 56.0025 28.276 59.5675 28.276C63.1325 28.276 65.4785 25.792 65.4785 22.296C65.4785 18.8 63.1325 16.316 59.5675 16.316C56.0025 16.316 53.6565 18.8 53.6565 22.296ZM56.4855 22.296C56.4855 20.249 57.7045 18.823 59.5675 18.823C61.4305 18.823 62.6495 20.249 62.6495 22.296C62.6495 24.32 61.4305 25.769 59.5675 25.769C57.7045 25.769 56.4855 24.32 56.4855 22.296Z" fill="#262626"/>
<path d="M66.4221 22.066C66.4221 25.378 68.5611 27.77 71.7581 27.77C73.4141 27.77 74.8401 27.103 75.5531 25.999V27.931C75.5531 29.794 74.3801 31.036 72.4251 31.036C70.6771 31.036 69.4811 30.185 69.3201 28.69H66.4911C66.8591 31.657 69.1361 33.589 72.2641 33.589C75.9441 33.589 78.2901 31.174 78.2901 27.425V16.638H75.8061L75.6451 18.179C74.9551 16.983 73.5291 16.27 71.8501 16.27C68.6071 16.27 66.4221 18.731 66.4221 22.066ZM69.2741 21.997C69.2741 20.111 70.4701 18.731 72.2411 18.731C74.1731 18.731 75.4611 20.134 75.4611 21.997C75.4611 23.883 74.1731 25.332 72.2411 25.332C70.4931 25.332 69.2741 23.906 69.2741 21.997Z" fill="#262626"/>
<path d="M79.6787 22.296C79.6787 25.792 82.0247 28.276 85.5897 28.276C89.1547 28.276 91.5007 25.792 91.5007 22.296C91.5007 18.8 89.1547 16.316 85.5897 16.316C82.0247 16.316 79.6787 18.8 79.6787 22.296ZM82.5077 22.296C82.5077 20.249 83.7267 18.823 85.5897 18.823C87.4527 18.823 88.6717 20.249 88.6717 22.296C88.6717 24.32 87.4527 25.769 85.5897 25.769C83.7267 25.769 82.5077 24.32 82.5077 22.296Z" fill="#262626"/>
<path d="M94.5376 14.315C95.4576 14.315 96.2166 13.579 96.2166 12.636C96.2166 11.716 95.4576 10.98 94.5376 10.98C93.5946 10.98 92.8816 11.716 92.8816 12.636C92.8816 13.579 93.5946 14.315 94.5376 14.315ZM93.1346 28H95.9406V16.638H93.1346V28Z" fill="#262626"/>
<path d="M98.3989 33.267H101.136V26.436C101.849 27.609 103.39 28.299 105.092 28.299C108.45 28.299 110.451 25.723 110.405 22.181C110.336 18.616 108.289 16.293 105.069 16.293C103.344 16.293 101.78 17.052 101.09 18.363L100.929 16.638H98.3989V33.267ZM101.251 22.319C101.251 20.272 102.493 18.846 104.448 18.846C106.403 18.846 107.576 20.295 107.576 22.319C107.576 24.343 106.403 25.769 104.448 25.769C102.493 25.769 101.251 24.366 101.251 22.319Z" fill="#262626"/>
<path d="M111.117 24.596C111.209 26.85 112.957 28.299 115.671 28.299C118.339 28.299 120.156 26.873 120.156 24.665C120.156 23.032 119.144 21.928 117.281 21.468L115.28 20.985C114.429 20.755 113.854 20.456 113.854 19.72C113.854 18.938 114.475 18.386 115.487 18.386C116.545 18.386 117.235 18.984 117.235 19.973H119.788C119.696 17.719 118.017 16.293 115.556 16.293C113.118 16.293 111.301 17.719 111.301 19.881C111.301 21.353 112.152 22.572 114.337 23.147L116.315 23.653C117.051 23.86 117.511 24.205 117.511 24.849C117.511 25.746 116.66 26.16 115.625 26.16C114.383 26.16 113.67 25.585 113.67 24.596H111.117Z" fill="#262626"/>
<path d="M125.977 28.2989C127.518 28.2989 128.99 27.5859 129.657 26.5279L129.841 27.9999H132.463V16.6379H129.657V22.5949C129.657 24.6419 128.875 25.7919 127.035 25.7919C125.609 25.7919 124.62 25.1019 124.62 22.7559V16.6379H121.814V23.7449C121.814 26.4589 123.286 28.2989 125.977 28.2989Z" fill="#262626"/>
<path d="M137.745 28V21.468C137.745 19.628 138.826 18.754 140.16 18.754C141.494 18.754 142.368 19.605 142.368 21.215V28H145.105V21.491C145.105 19.628 146.163 18.754 147.497 18.754C148.854 18.754 149.728 19.605 149.728 21.215V28H152.442V20.571C152.442 17.949 150.993 16.293 148.233 16.293C146.508 16.293 145.151 17.121 144.599 18.455C143.978 17.121 142.736 16.293 140.85 16.293C139.516 16.293 138.32 16.914 137.653 17.926L137.515 16.638H134.939V28H137.745Z" fill="#262626"/>
<path d="M131.018 38.154C131.436 38.154 131.799 37.802 131.799 37.384C131.799 36.955 131.436 36.603 131.018 36.603C130.589 36.603 130.226 36.955 130.226 37.384C130.226 37.802 130.589 38.154 131.018 38.154Z" fill="#262626"/>
<path d="M132.606 35.316C132.606 36.999 133.64 38.132 135.147 38.132C136.445 38.132 137.435 37.351 137.644 36.185H136.654C136.467 36.834 135.895 37.219 135.213 37.219C134.245 37.219 133.629 36.471 133.629 35.305C133.629 34.117 134.278 33.391 135.235 33.391C135.895 33.391 136.467 33.743 136.643 34.436H137.633C137.457 33.259 136.533 32.467 135.246 32.467C133.684 32.467 132.606 33.622 132.606 35.316Z" fill="#262626"/>
<path d="M138.034 35.305C138.034 36.922 139.134 38.132 140.784 38.132C142.434 38.132 143.534 36.922 143.534 35.305C143.534 33.688 142.434 32.478 140.784 32.478C139.134 32.478 138.034 33.688 138.034 35.305ZM139.079 35.305C139.079 34.205 139.75 33.402 140.784 33.402C141.818 33.402 142.489 34.205 142.489 35.305C142.489 36.405 141.818 37.208 140.784 37.208C139.75 37.208 139.079 36.405 139.079 35.305Z" fill="#262626"/>
<path d="M145.451 38.011V34.777C145.451 33.93 145.979 33.38 146.749 33.38C147.486 33.38 147.948 33.853 147.948 34.7V38.011H148.96V34.788C148.96 33.93 149.477 33.38 150.258 33.38C150.984 33.38 151.446 33.853 151.446 34.7V38.011H152.447V34.48C152.447 33.237 151.721 32.478 150.489 32.478C149.653 32.478 149.004 32.885 148.74 33.545C148.465 32.885 147.86 32.478 146.98 32.478C146.309 32.478 145.715 32.786 145.418 33.314L145.341 32.632H144.417V38.011H145.451Z" fill="#262626"/>
<path fill-rule="evenodd" clip-rule="evenodd" d="M2.5 22.4353L2.50193 22.2349L2.50591 22.0344L2.51195 21.8339L2.52004 21.6334L2.5302 21.4329L2.54241 21.2324L2.55669 21.032L2.57302 20.8316L2.59142 20.6313L2.61188 20.431L2.6344 20.231L2.65897 20.031L2.68561 19.8312L2.71431 19.6316L2.74506 19.4322L2.77787 19.2331L2.81274 19.0341L2.84965 18.8355L2.88862 18.6371L2.92964 18.439L2.97271 18.2412L3.01781 18.0438L3.06497 17.8468L3.11415 17.6501L3.16538 17.4539L3.21863 17.258L3.27392 17.0626L3.33123 16.8677L3.39056 16.6733L3.4519 16.4794L3.51526 16.286L3.58063 16.0931L3.648 15.9008L3.71736 15.7091L3.78872 15.518L3.86206 15.3275L3.93739 15.1377L4.01469 14.9485L4.09396 14.7601L4.17519 14.5723L4.25838 14.3852L4.34352 14.1989L4.4306 14.0134L4.51962 13.8286L4.61057 13.6446L4.70344 13.4615L4.79822 13.2792L4.89491 13.0977L4.99349 12.9172L5.09396 12.7375L5.19632 12.5587L5.30054 12.3809L5.40663 12.204L5.51457 12.0281L5.62436 11.8532L5.73598 11.6793L5.84943 11.5065L5.9647 11.3346L6.08177 11.1639L6.20064 10.9942L6.32129 10.8256L6.44371 10.6582L6.5679 10.4918L6.69384 10.3267L6.82153 10.1627L6.95094 9.99984L7.08207 9.83824L7.21491 9.67786L7.34944 9.51872L7.48566 9.36083L7.62355 9.20422L7.76309 9.04891L7.90428 8.8949L8.04711 8.74222L8.19155 8.59088L8.3376 8.4409L8.48524 8.29229L8.63446 8.14507L8.78525 7.99926L8.93759 7.85487L9.09147 7.71193L9.24687 7.57043L9.40378 7.43041L9.56219 7.29187L9.72208 7.15482L9.88343 7.0193L10.0462 6.88531L10.2105 6.75286L10.3761 6.62197L10.5432 6.49265L10.7116 6.36493L10.8815 6.2388L11.0527 6.1143L11.2252 5.99143L11.399 5.8702L11.5742 5.75063L11.7506 5.63272L11.9283 5.51651L12.1073 5.40199L12.2876 5.28919L12.469 5.17811L12.6517 5.06876L12.8355 4.96117L13.0205 4.85534L13.2067 4.75128L13.394 4.64901L13.5824 4.54853L13.7719 4.44987L13.9625 4.35302L14.1542 4.25801L14.3469 4.16484L14.5407 4.07352L14.7354 3.98407L14.9312 3.8965L15.1279 3.81081L15.3256 3.72702L15.5242 3.64514L15.7237 3.56517L15.9241 3.48712L16.1254 3.41102L16.3275 3.33685L16.5305 3.26465L16.7343 3.1944L16.9389 3.12612L17.1442 3.05983L17.3503 2.99552L17.5572 2.93321L17.7648 2.87291L17.973 2.81462L18.182 2.75834L18.3916 2.70409L18.6018 2.65188L18.8126 2.60172L19.0241 2.55359L19.2361 2.50753L19.4486 2.46352L19.6617 2.42158L19.8753 2.38172L20.0894 2.34393L20.304 2.30823L20.519 2.27462L20.7344 2.2431L20.9502 2.21369L21.1664 2.18638L21.383 2.16118L21.5999 2.13808L21.8171 2.11712L22.0346 2.09827L22.2524 2.08154L22.4704 2.06695L23.6428 2L23.7097 7.64867L23.748 7.64823L23.9099 7.648L24.0718 7.64936L24.2337 7.65231L24.3958 7.65686L24.5578 7.663L24.7199 7.67072L24.882 7.68005L25.0441 7.69098L25.2061 7.70349L25.3682 7.71761L25.5301 7.73333L25.692 7.75065L25.8537 7.76956L26.0154 7.79007L26.1769 7.81218L26.3383 7.83588L26.4995 7.86119L26.6606 7.88809L26.8214 7.91658L26.9821 7.94667L27.1425 7.97835L27.3026 8.01163L27.4626 8.04649L27.6222 8.08294L27.7815 8.12097L27.9406 8.16059L28.0993 8.2018L28.2576 8.24458L28.4156 8.28894L28.5733 8.33487L28.7305 8.38237L28.8873 8.43144L29.0437 8.48208L29.1997 8.53428L29.3552 8.58803L29.5102 8.64334L29.6648 8.70019L29.8188 8.7586L29.9723 8.81854L30.1253 8.88003L30.2777 8.94305L30.4295 9.00759L30.5808 9.07366L30.7315 9.14125L30.8815 9.21035L31.0309 9.28095L31.1797 9.35306L31.3278 9.42667L31.4752 9.50177L31.6219 9.57835L31.7679 9.65641L31.9132 9.73595L32.0577 9.81695L32.2015 9.89941L32.3445 9.98332L32.4867 10.0687L32.6281 10.1555L32.7687 10.2437L32.9084 10.3334L33.0473 10.4244L33.1853 10.5169L33.3225 10.6108L33.4587 10.706L33.5941 10.8027L33.7285 10.9007L33.8619 11.0001L33.9945 11.1009L34.126 11.203L34.2566 11.3065L34.3861 11.4112L34.5147 11.5173L34.6422 11.6248L34.7687 11.7335L34.8942 11.8435L35.0186 11.9548L35.1418 12.0674L35.264 12.1813L35.3851 12.2964L35.5051 12.4127L35.6239 12.5303L35.7416 12.6491L35.8581 12.7692L35.9735 12.8904L36.0876 13.0128L36.2006 13.1364L36.3123 13.2612L36.4228 13.3871L36.5321 13.5142L36.6401 13.6424L36.7469 13.7717L36.8524 13.9022L36.9566 14.0337L37.0595 14.1663L37.1611 14.3L37.2614 14.4348L37.3603 14.5706L37.4579 14.7075L37.5541 14.8454L37.649 14.9842L37.7425 15.1241L37.8346 15.265L37.9253 15.4069L38.0145 15.5497L38.1024 15.6934L38.1888 15.8381L38.2738 15.9837L38.3573 16.1302L38.4394 16.2776L38.52 16.4259L38.5991 16.575L38.6767 16.725L38.7528 16.8758L38.8274 17.0274L38.9005 17.1799L38.9721 17.3331L39.0421 17.4871L39.1106 17.6419L39.1775 17.7974L39.2428 17.9537L39.3066 18.1106L39.3688 18.2683L39.4294 18.4266L39.4884 18.5857L39.5458 18.7453L39.6016 18.9057L39.6558 19.0666L39.7084 19.2282L39.7593 19.3903L39.8086 19.553L39.8562 19.7163L39.9022 19.8801L39.9465 20.0445L39.9892 20.2094L40.0301 20.3747L40.0695 20.5406L40.1071 20.7069L40.143 20.8737L40.1773 21.0408L40.2098 21.2085L40.2406 21.3765L40.2698 21.5449L40.2972 21.7136L40.3229 21.8827L40.3469 22.0522L40.3691 22.2219L40.3896 22.392L40.4084 22.5623L40.4254 22.7329L40.4407 22.9037L40.4543 23.0748L40.4661 23.2461L40.4761 23.4176L40.4844 23.5892L40.491 23.7611L40.4957 23.933L40.4988 24.1051L40.5 24.2773L40.4995 24.4496L40.4972 24.622L40.4931 24.7945L40.4873 24.9669L40.4797 25.1394L40.4704 25.3119L40.4592 25.4844L40.4463 25.6569L40.4316 25.8293L40.4151 26.0017L40.3969 26.174L40.3768 26.3461L40.355 26.5182L40.3315 26.6901L40.3061 26.8619L40.279 27.0335L40.2501 27.2049L40.2194 27.3761L40.187 27.5471L40.1528 27.7179L40.1168 27.8884L40.079 28.0586L40.0395 28.2286L39.9983 28.3982L39.9552 28.5675L39.9104 28.7364L39.8639 28.905L39.8156 29.0732L39.7656 29.241L39.7138 29.4085L39.6602 29.5754L39.605 29.742L39.548 29.908L39.4892 30.0736L39.4288 30.2387L39.3666 30.4032L39.3027 30.5672L39.2371 30.7307L39.1698 30.8936L39.1008 31.0559L39.0301 31.2177L38.9577 31.3787L38.8836 31.5392L38.8078 31.699L38.7304 31.8581L38.6512 32.0166L38.5705 32.1743L38.488 32.3314L38.404 32.4876L38.3182 32.6432L38.2309 32.7979L38.1419 32.9519L38.0513 33.1051L37.9591 33.2574L37.8653 33.409L37.7698 33.5596L37.6728 33.7094L37.5743 33.8583L37.4741 34.0063L37.3724 34.1534L37.2691 34.2996L37.1643 34.4448L37.0579 34.5891L36.95 34.7324L36.8406 34.8747L36.7297 35.0159L36.6173 35.1562L36.5034 35.2954L36.388 35.4335L36.2711 35.5706L36.1528 35.7066L36.033 35.8415L35.9118 35.9753L35.7892 36.108L35.6652 36.2395L35.5397 36.3699L35.4129 36.499L35.2846 36.627L35.155 36.7538L35.0241 36.8794L34.8918 37.0038L34.7582 37.1269L34.6232 37.2488L34.4869 37.3693L34.3494 37.4886L34.2105 37.6067L34.0704 37.7234L33.929 37.8387L33.7864 37.9528L33.6425 38.0655L33.4974 38.1768L33.3511 38.2867L33.2036 38.3953L33.055 38.5025L32.9051 38.6082L32.7541 38.7126L32.602 38.8155L32.4488 38.9169L32.2944 39.0169L32.139 39.1155L31.9825 39.2125L31.8249 39.3081L31.6662 39.4021L31.5065 39.4947L31.3459 39.5857L31.1841 39.6751L31.0215 39.7631L30.8578 39.8494L30.6932 39.9342L30.5276 40.0175L30.3611 40.0991L30.1937 40.1791L30.0254 40.2576L29.8562 40.3344L29.6862 40.4096L29.5153 40.4831L29.3436 40.555L29.1711 40.6253L28.9978 40.6939L28.8237 40.7608L28.6488 40.8261L28.4732 40.8896L28.2968 40.9515L28.1198 41.0116L27.9421 41.0701L27.7636 41.1268L27.5845 41.1818L27.4048 41.2351L27.2245 41.2866L27.0435 41.3364L26.862 41.3845L26.6798 41.4307L26.4972 41.4752L26.314 41.518L26.1302 41.5589L25.946 41.5981L25.7613 41.6355L25.5761 41.6711L25.3905 41.7049L25.2045 41.7368L25.018 41.767L24.8312 41.7954L24.6439 41.8219L24.4564 41.8466L24.2685 41.8695L24.0802 41.8905L23.8917 41.9097L23.7029 41.9271L23.5139 41.9426L23.3246 41.9563L23.1351 41.9681L22.9453 41.9781L22.7554 41.9862L22.5654 41.9924L22.3751 41.9968L22.1848 41.9993L21.9943 42L21.8038 41.9988L21.6132 41.9957L21.4225 41.9908L21.2318 41.9839L21.0411 41.9752L20.8504 41.9647L20.6598 41.9522L20.4691 41.9379L20.2786 41.9217L20.0881 41.9036L19.8977 41.8837L19.7075 41.8619L19.5174 41.8382L19.3274 41.8126L19.1377 41.7851L18.9481 41.7558L18.7588 41.7246L18.5697 41.6916L18.3808 41.6566L18.1923 41.6198L18.004 41.5812L17.8161 41.5406L17.6284 41.4982L17.4412 41.454L17.2543 41.4079L17.0678 41.3599L16.8817 41.3101L16.6961 41.2585L16.5109 41.205L16.3261 41.1497L16.1419 41.0925L15.9582 41.0335L15.775 40.9727L15.5923 40.91L15.4102 40.8455L15.2287 40.7793L15.0478 40.7112L14.8675 40.6413L14.6879 40.5696L14.5089 40.4961L14.3306 40.4208L14.153 40.3438L13.9761 40.265L13.7999 40.1844L13.6245 40.102L13.4499 40.0179L13.2761 39.932L13.103 39.8444L12.9308 39.7551L12.7595 39.664L12.5889 39.5713L12.4193 39.4768L12.2506 39.3806L12.0828 39.2827L11.9159 39.1831L11.75 39.0819L11.585 38.9789L11.421 38.8744L11.2581 38.7681L11.0961 38.6603L10.9352 38.5507L10.7754 38.4396L10.6166 38.3269L10.4589 38.2125L10.3023 38.0966L10.1469 37.979L9.99256 37.8599L9.8394 37.7393L9.68741 37.617L9.53662 37.4933L9.38703 37.368L9.23866 37.2412L9.09153 37.1129L8.94566 36.983L8.80106 36.8517L8.65775 36.719L8.51573 36.5847L8.37504 36.4491L8.23568 36.3119L8.09766 36.1734L7.96101 36.0335L7.82574 35.8921L7.69186 35.7494L7.55939 35.6053L7.42835 35.4598L7.29874 35.313L7.17058 35.1649L7.04389 35.0154L6.91868 34.8647L6.79497 34.7126L6.67276 34.5593L6.55208 34.4047L6.43293 34.2489L6.31533 34.0918L6.19929 33.9335L6.08483 33.774L5.97195 33.6133L5.86068 33.4515L5.75102 33.2885L5.64299 33.1243L5.5366 32.9591L5.43185 32.7927L5.32877 32.6252L5.22737 32.4567L5.12765 32.287L5.02964 32.1164L4.93333 31.9447L4.83874 31.772L4.74589 31.5982L4.65477 31.4235L4.56542 31.2479L4.47782 31.0713L4.39201 30.8938L4.30798 30.7153L4.22574 30.536L4.14531 30.3557L4.06669 30.1747L3.9899 29.9927L3.91495 29.81L3.84183 29.6264L3.77057 29.442L3.70118 29.2569L3.63365 29.071L3.568 28.8844L3.50423 28.6971L3.44236 28.509L3.3824 28.3203L3.32434 28.1309L3.26821 27.9409L3.214 27.7502L3.16172 27.5589L3.11138 27.3671L3.06299 27.1747L3.01655 26.9817L2.97208 26.7882L2.92957 26.5941L2.88903 26.3996L2.85047 26.2046L2.81389 26.0092L2.7793 25.8133L2.74671 25.617L2.71611 25.4203L2.68752 25.2232L2.66094 25.0257L2.63638 24.8279L2.61383 24.6298L2.5933 24.4314L2.5748 24.2328L2.55833 24.0338L2.54389 23.8346L2.53149 23.6352L2.52113 23.4356L2.51281 23.2358L2.50653 23.0359L2.5023 22.8358L2.50013 22.6356L2.5 22.4353ZM21.8781 7.76699L21.8325 3.91679L21.7892 3.92097L21.5904 3.94213L21.3921 3.96521L21.1939 3.99025L20.9965 4.01715L20.7993 4.04601L20.6023 4.0768L20.4059 4.10948L20.2097 4.14411L20.0145 4.18054L19.819 4.21901L19.6249 4.25921L19.4305 4.30144L19.2371 4.34546L19.0439 4.39144L18.8516 4.43918L18.6598 4.48884L18.4685 4.54035L18.2778 4.59372L18.088 4.64888L17.8985 4.70594L17.71 4.76477L17.522 4.82547L17.335 4.88785L17.1483 4.9522L16.9626 5.01827L16.7778 5.08609L16.5935 5.15576L16.4102 5.22713L16.2279 5.30022L16.0461 5.37519L15.8652 5.45186L15.6852 5.53028L15.5062 5.61035L15.3281 5.69216L15.151 5.77562L14.9745 5.86092L14.7993 5.94778L14.625 6.03633L14.4517 6.12655L14.2794 6.21844L14.1083 6.3119L13.9379 6.40709L13.7686 6.50393L13.6008 6.60215L13.4335 6.70229L13.2678 6.80376L13.1032 6.90681L12.9394 7.01155L12.7769 7.11782L12.6156 7.22564L12.4558 7.33473L12.2966 7.44575L12.139 7.55796L11.9826 7.67172L11.8273 7.78704L11.6734 7.90373L11.5209 8.02182L11.3693 8.14157L11.2194 8.26246L11.0706 8.38494L10.9232 8.50875L10.7771 8.634L10.6325 8.76045L10.489 8.8885L10.3471 9.01769L10.2064 9.14837L10.0674 9.28015L9.92962 9.41336L9.79338 9.54777L9.65853 9.68351L9.52499 9.82065L9.3932 9.95873L9.26289 10.098L9.13374 10.2389L9.00638 10.3807L8.88058 10.5235L8.75607 10.6678L8.63337 10.813L8.51203 10.9595L8.39232 11.107L8.27418 11.2557L8.15758 11.4054L8.0427 11.5561L7.92932 11.7079L7.8175 11.8609L7.70748 12.0146L7.59893 12.1696L7.49211 12.3254L7.38694 12.4822L7.28335 12.64L7.18151 12.7987L7.08134 12.9582L6.98285 13.1187L6.88612 13.28L6.79098 13.4423L6.69755 13.6055L6.60596 13.7693L6.51601 13.934L6.42778 14.0996L6.34134 14.2659L6.2566 14.433L6.17368 14.6007L6.09249 14.7692L6.01309 14.9384L5.93542 15.1084L5.85959 15.2789L5.78548 15.4502L5.71318 15.6221L5.64273 15.7945L5.57404 15.9676L5.50715 16.1413L5.4421 16.3155L5.37885 16.4903L5.31747 16.6655L5.25786 16.8414L5.2001 17.0177L5.14419 17.1945L5.09013 17.3716L5.03787 17.5494L4.9875 17.7274L4.93897 17.9059L4.89228 18.0847L4.84745 18.264L4.80449 18.4435L4.76339 18.6234L4.72415 18.8036L4.68678 18.9841L4.65128 19.1648L4.61764 19.3458L4.58588 19.527L4.55599 19.7085L4.52798 19.8901L4.50184 20.0719L4.47758 20.2539L4.45519 20.436L4.43468 20.6182L4.41605 20.8006L4.3993 20.983L4.38442 21.1654L4.37142 21.348L4.3603 21.5306L4.35105 21.7131L4.34368 21.8957L4.33818 22.0782L4.33456 22.2607L4.3328 22.4431L4.33292 22.6255L4.3349 22.8077L4.33875 22.9899L4.34446 23.1719L4.35203 23.3537L4.36147 23.5354L4.37275 23.7168L4.38589 23.8981L4.40088 24.0791L4.41772 24.2599L4.43639 24.4405L4.45691 24.6207L4.47926 24.8007L4.50344 24.9803L4.52945 25.1596L4.55729 25.3386L4.58693 25.5171L4.6184 25.6953L4.65167 25.8731L4.68674 26.0504L4.72361 26.2274L4.76227 26.4038L4.80272 26.5798L4.84495 26.7553L4.88895 26.9303L4.93473 27.1048L4.98225 27.2786L5.03155 27.452L5.08259 27.6248L5.13537 27.797L5.18989 27.9686L5.24612 28.1395L5.30408 28.3098L5.36376 28.4794L5.42514 28.6484L5.4882 28.8166L5.55299 28.9842L5.61942 29.151L5.68753 29.3171L5.75732 29.4824L5.82875 29.6469L5.90184 29.8107L5.97656 29.9737L6.05291 30.1358L6.13087 30.2971L6.21045 30.4575L6.29162 30.6171L6.37439 30.7758L6.45873 30.9336L6.54465 31.0905L6.63212 31.2464L6.72114 31.4014L6.8117 31.5555L6.9038 31.7085L6.99737 31.8606L7.09251 32.0117L7.1891 32.1617L7.2872 32.3108L7.38677 32.4588L7.48778 32.6057L7.59024 32.7516L7.69417 32.8964L7.79949 33.0401L7.90626 33.1827L8.01438 33.3241L8.12395 33.4644L8.23483 33.6035L8.34711 33.7415L8.46077 33.8784L8.5757 34.014L8.692 34.1484L8.80959 34.2816L8.92852 34.4136L9.0487 34.5443L9.17013 34.6738L9.29285 34.802L9.4168 34.929L9.54202 35.0547L9.66842 35.179L9.79606 35.3021L9.92484 35.4238L10.0548 35.5443L10.186 35.6634L10.3183 35.7811L10.4516 35.8974L10.5862 36.0124L10.7219 36.126L10.8585 36.2382L10.9964 36.3491L11.1352 36.4584L11.2751 36.5664L11.416 36.673L11.558 36.7781L11.7009 36.8817L11.8448 36.9839L11.9896 37.0846L12.1355 37.1839L12.2822 37.2816L12.43 37.3779L12.5785 37.4727L12.728 37.5659L12.8784 37.6577L13.0295 37.7479L13.1816 37.8366L13.3344 37.9237L13.4881 38.0093L13.6425 38.0933L13.7978 38.1758L13.9537 38.2567L14.1104 38.3361L14.2679 38.4138L14.4261 38.49L14.5849 38.5646L14.7444 38.6376L14.9045 38.7089L15.0654 38.7787L15.2268 38.8468L15.3889 38.9134L15.5515 38.9783L15.7147 39.0415L15.8785 39.1032L16.0427 39.1632L16.2075 39.2215L16.3729 39.2782L16.5387 39.3333L16.705 39.3867L16.8716 39.4384L17.0389 39.4885L17.2064 39.5369L17.3744 39.5836L17.5428 39.6287L17.7115 39.6721L17.8806 39.7138L18.0499 39.7538L18.2197 39.7922L18.3897 39.8288L18.5599 39.8638L18.7305 39.8971L18.9013 39.9287L19.0723 39.9586L19.2435 39.9868L19.4149 40.0133L19.5865 40.0381L19.7583 40.0612L19.9301 40.0827L20.1021 40.1024L20.2742 40.1204L20.4464 40.1368L20.6187 40.1514L20.791 40.1644L20.9633 40.1756L21.1357 40.1852L21.308 40.193L21.4803 40.1992L21.6526 40.2037L21.8249 40.2064L21.997 40.2075L22.1691 40.2069L22.3411 40.2046L22.5129 40.2007L22.6846 40.195L22.8562 40.1877L23.0276 40.1787L23.1987 40.168L23.3697 40.1557L23.5405 40.1417L23.711 40.126L23.8812 40.1086L24.0512 40.0896L24.2208 40.069L24.3902 40.0467L24.5592 40.0227L24.7279 39.9971L24.8962 39.9699L25.0642 39.941L25.2318 39.9105L25.3989 39.8784L25.5656 39.8447L25.7319 39.8093L25.8977 39.7724L26.063 39.7338L26.2279 39.6936L26.3922 39.6519L26.556 39.6085L26.7192 39.5636L26.882 39.5171L27.0441 39.469L27.2057 39.4194L27.3666 39.3683L27.527 39.3155L27.6867 39.2613L27.8456 39.2055L28.0041 39.1481L28.1618 39.0893L28.3188 39.0289L28.4751 38.9671L28.6306 38.9038L28.7854 38.8389L28.9395 38.7726L29.0928 38.7048L29.2452 38.6356L29.397 38.5649L29.5479 38.4927L29.6979 38.4192L29.8472 38.3441L29.9955 38.2677L30.143 38.1899L30.2897 38.1106L30.4353 38.03L30.5801 37.948L30.7239 37.8647L30.867 37.7799L31.0088 37.6939L31.15 37.6064L31.2899 37.5177L31.4289 37.4276L31.567 37.3362L31.7041 37.2434L31.8399 37.1496L31.9748 37.0543L32.1087 36.9578L32.2415 36.8601L32.3733 36.761L32.5038 36.6609L32.6335 36.5593L32.7618 36.4567L32.889 36.3529L33.0153 36.2478L33.1403 36.1415L33.264 36.0342L33.3867 35.9256L33.5081 35.816L33.6284 35.7052L33.7475 35.5933L33.8652 35.4804L33.9819 35.3662L34.0973 35.251L34.2114 35.1348L34.3243 35.0175L34.4358 34.8993L34.546 34.7801L34.6552 34.6595L34.7628 34.5383L34.8693 34.4159L34.9743 34.2927L35.0781 34.1684L35.1805 34.0433L35.2815 33.9172L35.3813 33.7901L35.4796 33.6623L35.5767 33.5334L35.6722 33.4038L35.7665 33.2732L35.8595 33.1417L35.9507 33.0097L36.0408 32.8766L36.1293 32.7429L36.2165 32.6082L36.3024 32.4727L36.3866 32.3367L36.4694 32.1999L36.5509 32.062L36.6307 31.9239L36.7092 31.7848L36.7863 31.645L36.8617 31.5048L36.9358 31.3636L37.0084 31.2218L37.0793 31.0799L37.1489 30.9368L37.217 30.7932L37.2835 30.6492L37.3485 30.5046L37.412 30.3594L37.4739 30.2138L37.5344 30.0674L37.5933 29.9206L37.6506 29.7737L37.7064 29.6257L37.7606 29.4777L37.8134 29.329L37.8646 29.18L37.9142 29.0305L37.9621 28.881L38.0087 28.7304L38.0535 28.58L38.0968 28.4291L38.1386 28.278L38.1788 28.1263L38.2173 27.9746L38.2544 27.8224L38.2898 27.6699L38.3237 27.5173L38.356 27.3643L38.3866 27.2114L38.4157 27.0578L38.4432 26.9046L38.4691 26.7508L38.4934 26.5969L38.5161 26.443L38.5373 26.2888L38.5568 26.1348L38.5748 25.9801L38.5911 25.826L38.6059 25.6714L38.619 25.5171L38.6306 25.3623L38.6406 25.2081L38.649 25.0534L38.6558 24.8986L38.661 24.7442L38.6647 24.5901L38.6667 24.4354L38.6672 24.281L38.6661 24.1268L38.6634 23.9727L38.6591 23.8186L38.6532 23.6651L38.6458 23.511L38.6368 23.3576L38.6262 23.2042L38.6141 23.0513L38.6004 22.8981L38.5852 22.7456L38.5684 22.593L38.55 22.4409L38.5301 22.2889L38.5087 22.1374L38.4856 21.9858L38.4611 21.8349L38.4351 21.6845L38.4075 21.534L38.3783 21.384L38.3477 21.2346L38.3155 21.0851L38.282 20.9367L38.2467 20.7881L38.2102 20.6405L38.1719 20.4927L38.1323 20.346L38.0912 20.1995L38.0486 20.0533L38.0046 19.908L37.9591 19.7632L37.912 19.6185L37.8637 19.4749L37.8137 19.3314L37.7625 19.1888L37.7097 19.0465L37.6556 18.9052L37.5999 18.7641L37.5429 18.6238L37.4846 18.4844L37.4249 18.3456L37.3635 18.207L37.3012 18.0697L37.2371 17.9325L37.1719 17.7966L37.1053 17.6612L37.0372 17.5263L36.968 17.3925L36.8973 17.2593L36.8252 17.1267L36.7522 16.9954L36.6775 16.8644L36.6017 16.7345L36.5244 16.6052L36.4462 16.4772L36.3663 16.3495L36.2855 16.223L36.2032 16.0971L36.1198 15.9723L36.0353 15.8486L35.9493 15.7254L35.8622 15.6033L35.774 15.4821L35.6845 15.362L35.5939 15.2426L35.5021 15.1244L35.4092 15.007L35.3151 14.8907L35.2199 14.7754L35.1235 14.661L35.026 14.5477L34.9275 14.4354L34.828 14.3242L34.7273 14.214L34.6253 14.1047L34.5228 13.9969L34.4186 13.8897L34.3139 13.784L34.208 13.6791L34.1012 13.5755L33.993 13.4727L33.8844 13.3715L33.7744 13.2711L33.6635 13.1719L33.552 13.074L33.4394 12.9772L33.3255 12.8813L33.211 12.7868L33.0957 12.6935L32.9794 12.6014L32.8622 12.5104L32.7444 12.4209L32.6253 12.3321L32.5058 12.245L32.3853 12.159L32.2639 12.0741L32.142 11.9906L32.0188 11.9081L31.8956 11.8273L31.771 11.7474L31.646 11.6689L31.52 11.5916L31.3935 11.5156L31.2663 11.441L31.1386 11.3678L31.0097 11.2955L30.8808 11.2249L30.7508 11.1554L30.6203 11.0873L30.4893 11.0206L30.3575 10.9551L30.2252 10.8909L30.0924 10.8282L29.9589 10.7667L29.8251 10.7067L29.6906 10.6479L29.5513 10.5887L29.4203 10.5346L29.284 10.4798L29.1479 10.4267L29.0107 10.3746L28.8735 10.3242L28.7357 10.275L28.5976 10.2273L28.4589 10.1808L28.3201 10.1359L28.1807 10.0923L28.041 10.0501L27.9012 10.0094L27.7608 9.96996L27.6199 9.93188L27.4792 9.89535L27.3382 9.86021L27.1963 9.82636L27.0549 9.79407L26.9128 9.76307L26.7707 9.73357L26.6281 9.70541L26.4857 9.67873L26.3429 9.65343L26.2002 9.6296L26.0568 9.6071L25.9138 9.58609L25.7705 9.56647L25.627 9.54826L25.4835 9.53148L25.34 9.51614L25.1964 9.5022L25.0527 9.48968L24.9089 9.47857L24.765 9.46887L24.6215 9.46061L24.4779 9.45376L24.3338 9.44831L24.1905 9.44429L24.0469 9.44167L23.9034 9.44047L23.7597 9.44067L23.7309 9.441L23.7762 13.2632L23.8577 13.2628L23.9626 13.2634L24.0675 13.265L24.1725 13.2677L24.2776 13.2714L24.3827 13.2762L24.4878 13.282L24.593 13.2888L24.6982 13.2967L24.8034 13.3056L24.9086 13.3156L25.0137 13.3266L25.1189 13.3387L25.224 13.3518L25.329 13.3659L25.434 13.3812L25.5389 13.3974L25.6437 13.4147L25.7485 13.4331L25.8531 13.4525L25.9576 13.473L26.062 13.4945L26.1663 13.517L26.2704 13.5406L26.3743 13.5653L26.4781 13.591L26.5816 13.6177L26.685 13.6455L26.7882 13.6743L26.8912 13.7042L26.994 13.7351L27.0965 13.767L27.1987 13.8L27.3007 13.834L27.4025 13.8691L27.5039 13.9052L27.6051 13.9423L27.7059 13.9804L27.8065 14.0196L27.9067 14.0598L28.0066 14.101L28.1061 14.1433L28.2053 14.1865L28.3041 14.2308L28.4025 14.276L28.5005 14.3223L28.5982 14.3696L28.6954 14.4179L28.7922 14.4672L28.8886 14.5175L28.9845 14.5687L29.08 14.621L29.175 14.6742L29.2695 14.7284L29.3636 14.7836L29.4572 14.8398L29.5502 14.8969L29.6427 14.955L29.7347 15.0141L29.8262 15.0741L29.9171 15.135L30.0075 15.1969L30.0973 15.2598L30.1865 15.3235L30.2751 15.3882L30.3631 15.4539L30.4506 15.5204L30.5373 15.5879L30.6235 15.6563L30.709 15.7255L30.7939 15.7957L30.8781 15.8668L30.9617 15.9387L31.0446 16.0115L31.1268 16.0852L31.2083 16.1598L31.289 16.2352L31.3691 16.3115L31.4484 16.3886L31.527 16.4666L31.6049 16.5454L31.682 16.6251L31.7584 16.7055L31.8339 16.7868L31.9087 16.8689L31.9827 16.9518L32.0559 17.0354L32.1283 17.1199L32.1999 17.2051L32.2707 17.2911L32.3406 17.3779L32.4097 17.4654L32.4779 17.5537L32.5453 17.6427L32.6118 17.7325L32.6774 17.8229L32.7422 17.9141L32.806 18.006L32.869 18.0986L32.931 18.1919L32.9921 18.2858L33.0523 18.3805L33.1116 18.4758L33.17 18.5717L33.2274 18.6683L33.2838 18.7656L33.3393 18.8634L33.3938 18.9619L33.4473 19.061L33.4999 19.1607L33.5515 19.261L33.602 19.3619L33.6516 19.4634L33.7002 19.5654L33.7477 19.6679L33.7942 19.7711L33.8397 19.8747L33.8842 19.9789L33.9276 20.0836L33.97 20.1888L34.0113 20.2945L34.0515 20.4006L34.0907 20.5073L34.1288 20.6144L34.1659 20.722L34.2019 20.83L34.2367 20.9385L34.2705 21.0473L34.3032 21.1566L34.3348 21.2663L34.3653 21.3764L34.3946 21.4869L34.4229 21.5977L34.45 21.7089L34.476 21.8204L34.5009 21.9323L34.5246 22.0445L34.5472 22.157L34.5686 22.2698L34.5889 22.383L34.6081 22.4964L34.6261 22.61L34.6429 22.724L34.6586 22.8381L34.6731 22.9525L34.6865 23.0672L34.6986 23.1821L34.7096 23.2971L34.7195 23.4124L34.7281 23.5278L34.7356 23.6434L34.7418 23.7591L34.7469 23.875L34.7508 23.9911L34.7535 24.1072L34.755 24.2235L34.7553 24.3399L34.7544 24.4563L34.7523 24.5728L34.749 24.6894L34.7445 24.8061L34.7388 24.9227L34.7319 25.0394L34.7238 25.1562L34.7145 25.2729L34.7039 25.3896L34.6922 25.5063L34.6792 25.6229L34.6651 25.7396L34.6497 25.8561L34.6331 25.9726L34.6153 26.089L34.5963 26.2053L34.5761 26.3215L34.5546 26.4376L34.532 26.5536L34.5081 26.6694L34.483 26.7851L34.4568 26.9006L34.4293 27.0159L34.4006 27.131L34.3707 27.246L34.3396 27.3607L34.3073 27.4752L34.2738 27.5894L34.2391 27.7034L34.2032 27.8172L34.166 27.9307L34.1277 28.0438L34.0882 28.1567L34.0476 28.2693L34.0057 28.3815L33.9626 28.4934L33.9184 28.605L33.873 28.7162L33.8264 28.8271L33.7786 28.9375L33.7297 29.0476L33.6796 29.1573L33.6283 29.2665L33.5759 29.3753L33.5223 29.4837L33.4675 29.5916L33.4116 29.6991L33.3546 29.806L33.2964 29.9125L33.2371 30.0185L33.1767 30.124L33.1151 30.2289L33.0524 30.3334L32.9886 30.4372L32.9237 30.5406L32.8576 30.6433L32.7905 30.7455L32.7222 30.847L32.6529 30.948L32.5825 31.0484L32.511 31.1481L32.4384 31.2472L32.3648 31.3457L32.2901 31.4435L32.2143 31.5406L32.1375 31.637L32.0596 31.7328L31.9807 31.8278L31.9008 31.9222L31.8198 32.0158L31.7378 32.1087L31.6548 32.2008L31.5708 32.2922L31.4858 32.3828L31.3999 32.4727L31.3129 32.5617L31.225 32.65L31.136 32.7374L31.0462 32.8241L30.9553 32.9099L30.8636 32.9948L30.7709 33.079L30.6772 33.1622L30.5827 33.2446L30.4872 33.3262L30.3909 33.4068L30.2936 33.4866L30.1955 33.5654L30.0964 33.6433L29.9965 33.7203L29.8958 33.7964L29.7942 33.8715L29.6917 33.9457L29.5885 34.019L29.4844 34.0912L29.3795 34.1625L29.2737 34.2328L29.1672 34.3021L29.0599 34.3704L28.9519 34.4377L28.843 34.5039L28.7335 34.5692L28.6231 34.6334L28.5121 34.6965L28.4003 34.7586L28.2878 34.8197L28.1746 34.8797L28.0607 34.9386L27.9461 34.9964L27.8309 35.0531L27.715 35.1088L27.5984 35.1633L27.4812 35.2167L27.3634 35.269L27.245 35.3202L27.1259 35.3702L27.0063 35.4191L26.8861 35.4669L26.7653 35.5135L26.644 35.559L26.5221 35.6033L26.3997 35.6464L26.2767 35.6883L26.1533 35.7291L26.0293 35.7686L25.9049 35.807L25.78 35.8442L25.6546 35.8801L25.5288 35.9149L25.4025 35.9484L25.2758 35.9807L25.1487 36.0118L25.0212 36.0417L24.8932 36.0703L24.765 36.0977L24.6363 36.1238L24.5073 36.1487L24.378 36.1724L24.2483 36.1948L24.1183 36.2159L23.9881 36.2357L23.8575 36.2543L23.7266 36.2716L23.5955 36.2877L23.4642 36.3024L23.3326 36.3159L23.2008 36.3281L23.0688 36.339L22.9366 36.3486L22.8042 36.3569L22.6716 36.3639L22.5389 36.3696L22.406 36.374L22.273 36.3771L22.1399 36.3789L22.0066 36.3794L21.8733 36.3786L21.74 36.3764L21.6065 36.373L21.473 36.3682L21.3395 36.3621L21.2059 36.3547L21.0724 36.346L20.9388 36.336L20.8053 36.3246L20.6718 36.3119L20.5383 36.2979L20.4049 36.2826L20.2716 36.266L20.1383 36.248L20.0052 36.2287L19.8722 36.2081L19.7393 36.1862L19.6065 36.1629L19.4739 36.1384L19.3415 36.1125L19.2093 36.0852L19.0772 36.0567L18.9454 36.0269L18.8138 35.9957L18.6824 35.9632L18.5513 35.9294L18.4204 35.8943L18.2898 35.8579L18.1596 35.8202L18.0296 35.7812L17.8999 35.7409L17.7706 35.6992L17.6417 35.6563L17.513 35.6121L17.3848 35.5666L17.257 35.5198L17.1295 35.4717L17.0025 35.4223L16.8759 35.3717L16.7497 35.3197L16.624 35.2665L16.4988 35.2121L16.3741 35.1563L16.2498 35.0993L16.1261 35.0411L16.0029 34.9816L15.8802 34.9208L15.758 34.8588L15.6365 34.7956L15.5155 34.7311L15.3951 34.6654L15.2753 34.5985L15.1561 34.5303L15.0375 34.461L14.9196 34.3904L14.8023 34.3186L14.6857 34.2457L14.5698 34.1715L14.4546 34.0962L14.3401 34.0196L14.2263 33.9419L14.1132 33.8631L14.0009 33.7831L13.8893 33.7019L13.7785 33.6196L13.6684 33.5361L13.5592 33.4515L13.4508 33.3658L13.3432 33.2789L13.2364 33.191L13.1304 33.1019L13.0253 33.0118L12.9211 32.9205L12.8177 32.8282L12.7152 32.7348L12.6137 32.6404L12.513 32.5449L12.4132 32.4483L12.3144 32.3507L12.2166 32.2521L12.1197 32.1524L12.0237 32.0518L11.9287 31.9501L11.8348 31.8475L11.7418 31.7438L11.6498 31.6392L11.5589 31.5336L11.4689 31.4271L11.3801 31.3196L11.2922 31.2111L11.2055 31.1018L11.1198 30.9915L11.0352 30.8803L10.9517 30.7682L10.8692 30.6553L10.7879 30.5414L10.7078 30.4267L10.6287 30.3111L10.5508 30.1947L10.4741 30.0775L10.3985 29.9594L10.324 29.8405L10.2508 29.7208L10.1787 29.6003L10.1079 29.4791L10.0382 29.357L9.96977 29.2343L9.90255 29.1107L9.83656 28.9865L9.7718 28.8615L9.70829 28.7358L9.64604 28.6094L9.58505 28.4823L9.52533 28.3546L9.46689 28.2261L9.40973 28.0971L9.35387 27.9674L9.29931 27.837L9.24605 27.7061L9.19412 27.5746L9.1435 27.4424L9.09421 27.3097L9.04625 27.1765L8.99964 27.0426L8.95438 26.9083L8.91047 26.7734L8.86792 26.638L8.82674 26.5022L8.78693 26.3658L8.7485 26.229L8.71145 26.0917L8.6758 25.9539L8.64154 25.8158L8.60867 25.6772L8.57722 25.5382L8.54717 25.3988L8.51854 25.2591L8.49133 25.119L8.46554 24.9785L8.44118 24.8377L8.41826 24.6966L8.39677 24.5552L8.37672 24.4135L8.35812 24.2715L8.34097 24.1292L8.32527 23.9867L8.31102 23.844L8.29823 23.701L8.28691 23.5578L8.27705 23.4145L8.26865 23.2709L8.26173 23.1272L8.25628 22.9834L8.25231 22.8394L8.24981 22.6953L8.24879 22.551L8.24926 22.4067L8.2512 22.2623L8.25464 22.1179L8.25955 21.9734L8.26596 21.8288L8.27386 21.6843L8.28324 21.5397L8.29412 21.3952L8.30648 21.2506L8.32034 21.1062L8.3357 20.9617L8.35254 20.8174L8.37088 20.6731L8.39071 20.5289L8.41203 20.3848L8.43485 20.2409L8.45915 20.0971L8.48495 19.9535L8.51224 19.81L8.54102 19.6667L8.57128 19.5237L8.60304 19.3808L8.63628 19.2382L8.671 19.0958L8.7072 18.9537L8.74489 18.8119L8.78405 18.6703L8.82469 18.5291L8.86681 18.3882L8.91039 18.2476L8.95545 18.1073L9.00197 17.9675L9.04995 17.828L9.0994 17.6889L9.1503 17.5502L9.20265 17.4119L9.25645 17.2741L9.3117 17.1367L9.36839 16.9998L9.42652 16.8634L9.48608 16.7274L9.54708 16.592L9.60949 16.4571L9.67333 16.3227L9.73858 16.1889L9.80525 16.0557L9.87332 15.923L9.94279 15.791L10.0136 15.6595L10.0859 15.5287L10.1595 15.3985L10.2346 15.2689L10.311 15.1401L10.3887 15.0119L10.4678 14.8844L10.5483 14.7576L10.6301 14.6315L10.7133 14.5062L10.7977 14.3816L10.8836 14.2578L10.9707 14.1347L11.0591 14.0124L11.1489 13.891L11.2399 13.7703L11.3323 13.6505L11.4259 13.5315L11.5208 13.4134L11.6169 13.2962L11.7143 13.1798L11.813 13.0643L11.9129 12.9497L12.014 12.8361L12.1164 12.7234L12.2199 12.6116L12.3247 12.5008L12.4307 12.3909L12.5378 12.2821L12.6461 12.1742L12.7556 12.0673L12.8663 11.9615L12.9781 11.8566L13.091 11.7529L13.2051 11.6501L13.3203 11.5485L13.4365 11.4479L13.5539 11.3484L13.6724 11.25L13.7919 11.1527L13.9125 11.0565L14.0342 10.9615L14.1569 10.8676L14.2806 10.7749L14.4054 10.6833L14.5311 10.5929L14.6578 10.5037L14.7856 10.4157L14.9143 10.3289L15.0439 10.2434L15.1746 10.159L15.3061 10.0759L15.4386 9.99404L15.572 9.91343L15.7063 9.83409L15.8414 9.75603L15.9775 9.67925L16.1144 9.60376L16.2521 9.52959L16.3907 9.45673L16.5301 9.38519L16.6703 9.31498L16.8113 9.24611L16.9531 9.17859L17.0957 9.11243L17.239 9.04763L17.3831 8.9842L17.5279 8.92216L17.6734 8.86151L17.8196 8.80225L17.9664 8.7444L18.114 8.68796L18.2622 8.63294L18.4111 8.57935L18.5606 8.52719L18.7107 8.47647L18.8614 8.4272L19.0126 8.37939L19.1645 8.33303L19.3169 8.28814L19.4699 8.24473L19.6233 8.20279L19.7773 8.16234L19.9318 8.12338L20.0868 8.08592L20.2422 8.04997L20.3981 8.01551L20.5544 7.98257L20.7111 7.95115L20.8683 7.92126L21.0258 7.89289L21.1837 7.86605L21.342 7.84075L21.5006 7.81699L21.6595 7.79478L21.8187 7.77411L21.8781 7.76699ZM21.9453 13.4361L21.8995 9.57189L21.769 9.59013L21.6287 9.61116L21.4883 9.63359L21.3488 9.6573L21.2091 9.68246L21.0701 9.70891L20.9314 9.73672L20.7932 9.76583L20.6553 9.79632L20.5177 9.82816L20.3805 9.86131L20.2439 9.89577L20.1074 9.93161L19.9763 9.9674L19.8366 10.0071L19.7017 10.0468L19.5674 10.0878L19.4338 10.13L19.3005 10.1736L19.1677 10.2185L19.0355 10.2646L18.904 10.3119L18.773 10.3606L18.6426 10.4104L18.5127 10.4616L18.3838 10.5139L18.2549 10.5676L18.127 10.6224L17.9997 10.6784L17.8733 10.7356L17.7472 10.7941L17.6218 10.8538L17.4975 10.9145L17.3734 10.9766L17.2506 11.0397L17.128 11.1042L17.0066 11.1695L16.8854 11.2364L16.7654 11.304L16.6462 11.3729L16.5276 11.443L16.4099 11.5141L16.2928 11.5865L16.1769 11.6597L16.0615 11.7342L15.9472 11.8097L15.8337 11.8862L15.721 11.9639L15.609 12.0427L15.4983 12.1222L15.3882 12.2031L15.279 12.2849L15.1708 12.3677L15.0636 12.4514L14.9571 12.5363L14.8518 12.622L14.7474 12.7087L14.6438 12.7966L14.5415 12.8851L14.4399 12.9748L14.3393 13.0654L14.2398 13.1568L14.1414 13.2491L14.0437 13.3425L13.9474 13.4365L13.852 13.5315L13.7575 13.6275L13.6642 13.7242L13.5719 13.8219L13.4807 13.9203L13.3906 14.0195L13.3015 14.1196L13.2134 14.2206L13.1268 14.3221L13.041 14.4246L12.9563 14.5279L12.8728 14.6318L12.7905 14.7364L12.7091 14.842L12.629 14.9481L12.55 15.055L12.4722 15.1626L12.3955 15.2709L12.3201 15.3797L12.2458 15.4893L12.1726 15.5996L12.1006 15.7105L12.0299 15.8219L11.9604 15.934L11.892 16.0469L11.8248 16.1601L11.7589 16.274L11.6941 16.3885L11.6307 16.5033L11.5684 16.6189L11.5072 16.7351L11.4475 16.8515L11.3889 16.9687L11.3316 17.0863L11.2755 17.2042L11.2207 17.3228L11.1671 17.4417L11.1148 17.5611L11.0637 17.6809L11.014 17.8011L10.9655 17.9217L10.9182 18.0428L10.8722 18.1642L10.8276 18.2859L10.7841 18.4081L10.7421 18.5304L10.7012 18.6532L10.6617 18.7763L10.6234 18.8997L10.5865 19.0233L10.5508 19.1472L10.5165 19.2713L10.4834 19.3958L10.4516 19.5204L10.4212 19.6453L10.3921 19.7704L10.3642 19.8956L10.3377 20.0211L10.3125 20.1467L10.2885 20.2724L10.2659 20.3984L10.2446 20.5244L10.2246 20.6506L10.2059 20.7767L10.1885 20.9031L10.1725 21.0295L10.1577 21.156L10.1443 21.2825L10.1321 21.4091L10.1213 21.5357L10.1118 21.6622L10.1036 21.7889L10.0966 21.9155L10.091 22.042L10.0867 22.1685L10.0837 22.2949L10.082 22.4213L10.0816 22.5477L10.0825 22.6739L10.0847 22.8L10.0882 22.926L10.0929 23.0518L10.099 23.1776L10.1063 23.3032L10.115 23.4285L10.1249 23.5538L10.136 23.6788L10.1485 23.8036L10.1622 23.9282L10.1772 24.0526L10.1935 24.1768L10.211 24.3006L10.2298 24.4243L10.2498 24.5475L10.2711 24.6706L10.2937 24.7934L10.3174 24.9157L10.3425 25.0379L10.3687 25.1596L10.3962 25.2811L10.4249 25.402L10.4548 25.5227L10.4859 25.643L10.5183 25.7629L10.5518 25.8823L10.5866 26.0014L10.6225 26.12L10.6597 26.2382L10.698 26.356L10.7375 26.4732L10.7782 26.5899L10.82 26.7062L10.863 26.822L10.9072 26.9373L10.9525 27.052L10.9989 27.1662L11.0465 27.2799L11.0952 27.393L11.1451 27.5055L11.196 27.6175L11.2481 27.7288L11.3013 27.8396L11.3555 27.9498L11.4109 28.0593L11.4673 28.1683L11.5248 28.2766L11.5834 28.3842L11.643 28.4912L11.7037 28.5975L11.7654 28.7031L11.8282 28.808L11.892 28.9123L11.9568 29.0158L12.0226 29.1186L12.0895 29.2208L12.1572 29.322L12.2261 29.4227L12.2958 29.5225L12.3666 29.6216L12.4383 29.7199L12.511 29.8174L12.5846 29.9141L12.6592 30.0101L12.7346 30.1052L12.811 30.1995L12.8883 30.293L12.9665 30.3857L13.0456 30.4774L13.1256 30.5685L13.2064 30.6585L13.2881 30.7478L13.3706 30.8361L13.454 30.9236L13.5382 31.0102L13.6233 31.0959L13.7091 31.1807L13.7958 31.2646L13.8833 31.3476L13.9714 31.4296L14.0605 31.5108L14.1502 31.5909L14.2407 31.6701L14.332 31.7484L14.424 31.8257L14.5167 31.9021L14.6101 31.9774L14.7042 32.0518L14.799 32.1252L14.8945 32.1977L14.9907 32.2691L15.0874 32.3395L15.1848 32.4089L15.2829 32.4773L15.3816 32.5447L15.481 32.6111L15.5809 32.6764L15.6814 32.7407L15.7825 32.804L15.8841 32.8662L15.9863 32.9274L16.0891 32.9875L16.1923 33.0465L16.2962 33.1045L16.4004 33.1614L16.5053 33.2173L16.6106 33.2721L16.7163 33.3257L16.8226 33.3784L16.9294 33.4299L17.0365 33.4804L17.144 33.5297L17.2521 33.578L17.3604 33.6251L17.4692 33.6711L17.5784 33.7161L17.688 33.7599L17.7978 33.8026L17.9081 33.8442L18.0187 33.8847L18.1296 33.9241L18.2408 33.9623L18.3524 33.9995L18.4642 34.0354L18.5763 34.0703L18.6887 34.104L18.8013 34.1366L18.9141 34.1681L19.0272 34.1984L19.1405 34.2277L19.254 34.2557L19.3677 34.2826L19.4816 34.3084L19.5957 34.3331L19.7099 34.3566L19.8242 34.3789L19.9388 34.4001L20.0533 34.4202L20.1681 34.4392L20.2829 34.4569L20.3978 34.4736L20.5128 34.4891L20.6278 34.5035L20.7429 34.5167L20.858 34.5288L20.9732 34.5397L21.0884 34.5495L21.2036 34.5581L21.3188 34.5657L21.4339 34.572L21.549 34.5773L21.6642 34.5814L21.7792 34.5844L21.8941 34.5862L22.009 34.5869L22.1238 34.5865L22.2385 34.5849L22.3531 34.5823L22.4675 34.5785L22.5819 34.5736L22.696 34.5675L22.81 34.5604L22.9238 34.5521L23.0375 34.5427L23.1509 34.5322L23.2642 34.5206L23.3773 34.5079L23.4901 34.4941L23.6027 34.4792L23.715 34.4633L23.8271 34.4462L23.9389 34.428L24.0503 34.4088L24.1616 34.3884L24.2725 34.367L24.3831 34.3446L24.4935 34.321L24.6033 34.2964L24.7129 34.2708L24.8221 34.244L24.931 34.2163L25.0395 34.1875L25.1476 34.1576L25.2553 34.1267L25.3626 34.0948L25.4694 34.0619L25.5758 34.0279L25.6819 33.9929L25.7874 33.9569L25.8925 33.9199L25.9971 33.8819L26.1012 33.8429L26.2048 33.8029L26.3079 33.7619L26.4106 33.7199L26.5127 33.677L26.6142 33.6331L26.7153 33.5883L26.8157 33.5425L26.9157 33.4957L27.0151 33.448L27.1137 33.3995L27.2121 33.3498L27.3096 33.2994L27.4067 33.2479L27.5029 33.1957L27.5987 33.1425L27.6939 33.0884L27.7883 33.0334L27.8822 32.9775L27.9754 32.9208L28.0678 32.8632L28.1598 32.8047L28.2508 32.7455L28.3413 32.6853L28.4312 32.6242L28.5202 32.5624L28.6084 32.4999L28.6962 32.4363L28.783 32.3722L28.8692 32.3071L28.9547 32.2412L29.0391 32.1747L29.1232 32.1072L29.2064 32.039L29.2885 31.9702L29.3703 31.9003L29.451 31.83L29.5309 31.759L29.6103 31.6869L29.6885 31.6145L29.7661 31.5412L29.8429 31.4672L29.9187 31.3926L29.9938 31.3172L30.0681 31.2412L30.1415 31.1645L30.2139 31.0872L30.2856 31.0092L30.3565 30.9306L30.4263 30.8515L30.4955 30.7715L30.5636 30.6911L30.6308 30.6101L30.6973 30.5283L30.7627 30.4463L30.8273 30.3634L30.891 30.2801L30.9538 30.1961L31.0156 30.1117L31.0764 30.0269L31.1365 29.9412L31.1955 29.8553L31.2536 29.7688L31.3109 29.6817L31.3669 29.5944L31.4223 29.5064L31.4766 29.4179L31.53 29.3291L31.5823 29.2398L31.6339 29.1499L31.6842 29.06L31.7338 28.9692L31.7823 28.8783L31.8297 28.787L31.8764 28.695L31.9218 28.6032L31.9665 28.5104L32.0099 28.4179L32.0527 28.3244L32.0941 28.2311L32.1348 28.137L32.1744 28.043L32.2129 27.9486L32.2505 27.8538L32.2871 27.7587L32.3225 27.6636L32.3572 27.5679L32.3906 27.4721L32.4231 27.3761L32.4546 27.2798L32.4851 27.1832L32.5146 27.0865L32.543 26.9897L32.5704 26.8925L32.5967 26.7953L32.6221 26.6978L32.6464 26.6002L32.6697 26.5026L32.692 26.4045L32.7132 26.3065L32.7335 26.2084L32.7526 26.1103L32.7708 26.012L32.7879 25.9133L32.804 25.815L32.8191 25.7164L32.8331 25.6177L32.8461 25.5192L32.8581 25.4205L32.8691 25.3215L32.879 25.2232L32.888 25.1241L32.8959 25.0254L32.9027 24.9269L32.9086 24.8281L32.9134 24.7295L32.9172 24.631L32.92 24.5322L32.9217 24.434L32.9225 24.3354L32.9222 24.2371L32.921 24.1388L32.9187 24.0409L32.9154 23.9428L32.9111 23.8449L32.9058 23.7474L32.8995 23.6496L32.8922 23.5521L32.884 23.4551L32.8747 23.3578L32.8644 23.2611L32.8531 23.1642L32.8409 23.0678L32.8277 22.9715L32.8135 22.8753L32.7983 22.7795L32.7822 22.684L32.7651 22.5887L32.747 22.4937L32.7279 22.3986L32.7079 22.3042L32.687 22.2101L32.6651 22.1161L32.6422 22.0223L32.6185 21.9293L32.5937 21.836L32.5681 21.7435L32.5415 21.6511L32.514 21.5593L32.4856 21.4676L32.4562 21.3763L32.426 21.2856L32.3949 21.1952L32.3627 21.1049L32.3299 21.0154L32.296 20.9261L32.2613 20.8374L32.2257 20.7489L32.1892 20.6608L32.1519 20.5735L32.1136 20.4863L32.0746 20.3998L32.0347 20.3138L31.9939 20.228L31.9522 20.1427L31.9099 20.0582L31.8665 19.9739L31.8225 19.8904L31.7776 19.8074L31.7318 19.7245L31.6854 19.6426L31.638 19.561L31.5899 19.4801L31.5409 19.3995L31.4914 19.3198L31.4408 19.2403L31.3897 19.1617L31.3377 19.0836L31.285 19.0061L31.2314 18.929L31.1772 18.8527L31.1224 18.7771L31.0666 18.7018L31.0103 18.6274L30.9531 18.5535L30.8955 18.4804L30.8369 18.4077L30.7777 18.3358L30.7178 18.2645L30.6573 18.1938L30.5962 18.124L30.5342 18.0546L30.4718 17.9861L30.4086 17.9181L30.345 17.8511L30.2804 17.7844L30.2155 17.7187L30.1497 17.6534L30.0835 17.5891L30.0168 17.5255L29.9494 17.4625L29.8813 17.4002L29.8127 17.3388L29.7436 17.2781L29.6737 17.2179L29.6038 17.1589L29.5329 17.1002L29.4616 17.0425L29.3898 16.9856L29.3174 16.9292L29.2446 16.8738L29.1715 16.8193L29.0975 16.7653L29.023 16.712L28.9485 16.6599L28.873 16.6082L28.7976 16.5577L28.7215 16.5077L28.6449 16.4585L28.5678 16.4101L28.4906 16.3627L28.4126 16.3159L28.3345 16.2701L28.2557 16.2249L28.177 16.1808L28.0976 16.1374L28.0178 16.0947L27.9377 16.0529L27.8574 16.0121L27.7766 15.9719L27.6954 15.9326L27.6141 15.8942L27.5326 15.8567L27.4502 15.8198L27.3682 15.784L27.2856 15.749L27.2026 15.7147L27.1195 15.6814L27.0363 15.649L26.9527 15.6174L26.8686 15.5865L26.7847 15.5567L26.7003 15.5276L26.6157 15.4994L26.5312 15.4721L26.4463 15.4457L26.3614 15.4201L26.2758 15.3953L26.1905 15.3715L26.105 15.3485L26.0193 15.3264L25.9335 15.3051L25.8473 15.2847L25.7613 15.2652L25.6753 15.2466L25.5889 15.2288L25.5023 15.2118L25.4162 15.1959L25.3295 15.1807L25.243 15.1664L25.1561 15.1529L25.0697 15.1404L24.9826 15.1286L24.8961 15.1179L24.8093 15.1079L24.7225 15.0988L24.6358 15.0906L24.5489 15.0832L24.4624 15.0767L24.3754 15.0711L24.2888 15.0663L24.2024 15.0624L24.1154 15.0593L24.0291 15.0571L23.9427 15.0558L23.8564 15.0553L23.7974 15.0555L23.8421 18.8309L23.8688 18.831L23.9184 18.8317L23.9681 18.8329L24.0179 18.8345L24.0677 18.8368L24.1176 18.8395L24.1675 18.8427L24.2175 18.8465L24.2675 18.8508L24.3176 18.8556L24.3677 18.8609L24.4178 18.8667L24.468 18.8731L24.5181 18.88L24.5683 18.8874L24.6185 18.8954L24.6687 18.9039L24.7188 18.9129L24.769 18.9225L24.8191 18.9325L24.8692 18.9432L24.9193 18.9543L24.9694 18.966L25.0193 18.9782L25.0693 18.9909L25.1192 19.0042L25.169 19.018L25.2188 19.0323L25.2685 19.0472L25.3181 19.0626L25.3676 19.0786L25.4171 19.0951L25.4664 19.1121L25.5157 19.1296L25.5648 19.1477L25.6138 19.1663L25.6627 19.1854L25.7115 19.2051L25.7601 19.2253L25.8086 19.246L25.857 19.2673L25.9052 19.2891L25.9533 19.3114L26.0012 19.3343L26.0489 19.3576L26.0965 19.3815L26.1438 19.406L26.191 19.4309L26.238 19.4564L26.2848 19.4824L26.3314 19.5089L26.3778 19.5359L26.4239 19.5634L26.4699 19.5915L26.5156 19.6201L26.5611 19.6492L26.6063 19.6787L26.6513 19.7088L26.6961 19.7395L26.7406 19.7706L26.7848 19.8022L26.8288 19.8343L26.8725 19.8669L26.9159 19.9L26.959 19.9336L27.0019 19.9677L27.0444 20.0023L27.0866 20.0373L27.1286 20.0729L27.1702 20.1089L27.2115 20.1454L27.2525 20.1824L27.2931 20.2199L27.3334 20.2578L27.3733 20.2962L27.413 20.3351L27.4522 20.3744L27.4911 20.4142L27.5297 20.4544L27.5678 20.4951L27.6056 20.5363L27.643 20.5779L27.6801 20.6199L27.7167 20.6624L27.7529 20.7053L27.7888 20.7486L27.8242 20.7924L27.8592 20.8366L27.8938 20.8812L27.928 20.9263L27.9618 20.9717L27.9951 21.0176L28.0279 21.0638L28.0604 21.1105L28.0924 21.1576L28.1239 21.2051L28.155 21.2529L28.1857 21.3012L28.2158 21.3498L28.2455 21.3988L28.2747 21.4482L28.3034 21.4979L28.3317 21.548L28.3594 21.5985L28.3867 21.6493L28.4135 21.7005L28.4397 21.752L28.4655 21.8038L28.4907 21.856L28.5154 21.9086L28.5396 21.9614L28.5633 22.0146L28.5865 22.0681L28.6091 22.1219L28.6312 22.176L28.6527 22.2304L28.6737 22.2851L28.6942 22.3401L28.7141 22.3954L28.7334 22.451L28.7522 22.5068L28.7704 22.5629L28.788 22.6193L28.8051 22.6759L28.8216 22.7328L28.8375 22.79L28.8529 22.8473L28.8677 22.9049L28.8818 22.9628L28.8954 23.0209L28.9084 23.0791L28.9208 23.1377L28.9326 23.1964L28.9437 23.2552L28.9543 23.3144L28.9643 23.3737L28.9737 23.4331L28.9824 23.4928L28.9905 23.5526L28.998 23.6126L29.0049 23.6728L29.0112 23.7331L29.0168 23.7935L29.0218 23.8541L29.0262 23.9149L29.0299 23.9757L29.033 24.0367L29.0354 24.0978L29.0373 24.159L29.0384 24.2203L29.039 24.2817L29.0388 24.3431L29.0381 24.4047L29.0367 24.4664L29.0346 24.5281L29.0319 24.5899L29.0285 24.6517L29.0245 24.7136L29.0198 24.7755L29.0144 24.8375L29.0084 24.8995L29.0018 24.9615L28.9944 25.0235L28.9864 25.0856L28.9778 25.1477L28.9685 25.2097L28.9585 25.2717L28.9478 25.3337L28.9365 25.3957L28.9245 25.4577L28.9119 25.5196L28.8985 25.5815L28.8845 25.6433L28.8699 25.7051L28.8545 25.7668L28.8385 25.8285L28.8219 25.89L28.8045 25.9515L28.7865 26.0128L28.7678 26.0741L28.7485 26.1353L28.7285 26.1963L28.7078 26.2573L28.6865 26.3181L28.6644 26.3787L28.6417 26.4393L28.6184 26.4996L28.5944 26.5599L28.5697 26.6199L28.5444 26.6798L28.5184 26.7395L28.4917 26.7991L28.4644 26.8584L28.4364 26.9175L28.4077 26.9765L28.3785 27.0352L28.3485 27.0937L28.3179 27.152L28.2866 27.21L28.2547 27.2678L28.2222 27.3254L28.189 27.3827L28.1551 27.4398L28.1207 27.4965L28.0855 27.5531L28.0498 27.6093L28.0134 27.6652L27.9763 27.7209L27.9387 27.7762L27.9004 27.8313L27.8615 27.886L27.8219 27.9404L27.7818 27.9945L27.741 28.0482L27.6996 28.1016L27.6576 28.1547L27.615 28.2074L27.5718 28.2597L27.528 28.3117L27.4836 28.3633L27.4385 28.4145L27.3929 28.4653L27.3467 28.5158L27.2999 28.5658L27.2526 28.6154L27.2046 28.6647L27.1561 28.7135L27.107 28.7618L27.0574 28.8098L27.0071 28.8573L26.9563 28.9043L26.905 28.9509L26.8531 28.9971L26.8007 29.0428L26.7477 29.088L26.6942 29.1327L26.6401 29.177L26.5855 29.2208L26.5304 29.264L26.4748 29.3068L26.4187 29.3491L26.362 29.3909L26.3049 29.4321L26.2472 29.4728L26.1891 29.5131L26.1304 29.5527L26.0713 29.5919L26.0117 29.6304L25.9516 29.6685L25.891 29.706L25.83 29.7429L25.7685 29.7792L25.7066 29.815L25.6442 29.8502L25.5813 29.8848L25.5181 29.9189L25.4544 29.9523L25.3903 29.9852L25.3257 30.0174L25.2608 30.0491L25.1954 30.0801L25.1296 30.1105L25.0635 30.1403L24.9969 30.1694L24.93 30.198L24.8627 30.2259L24.795 30.2531L24.7269 30.2797L24.6585 30.3057L24.5897 30.331L24.5206 30.3557L24.4512 30.3797L24.3814 30.403L24.3113 30.4257L24.2409 30.4476L24.1702 30.4689L24.0991 30.4896L24.0278 30.5095L23.9562 30.5288L23.8843 30.5473L23.8121 30.5652L23.7396 30.5823L23.6669 30.5988L23.5939 30.6145L23.5207 30.6296L23.4472 30.6439L23.3735 30.6575L23.2996 30.6704L23.2254 30.6826L23.1511 30.694L23.0765 30.7047L23.0018 30.7147L22.9268 30.724L22.8517 30.7325L22.7764 30.7402L22.7009 30.7473L22.6253 30.7535L22.5495 30.7591L22.4735 30.7638L22.3975 30.7679L22.3213 30.7712L22.245 30.7737L22.1685 30.7754L22.092 30.7764L22.0154 30.7767L21.9387 30.7762L21.8619 30.7749L21.785 30.7728L21.7081 30.77L21.6311 30.7664L21.554 30.762L21.4769 30.7569L21.3998 30.751L21.3227 30.7443L21.2455 30.7368L21.1684 30.7286L21.0912 30.7195L21.0141 30.7097L20.9369 30.6991L20.8598 30.6878L20.7827 30.6756L20.7057 30.6627L20.6287 30.649L20.5518 30.6345L20.4749 30.6193L20.3981 30.6032L20.3214 30.5864L20.2448 30.5687L20.1683 30.5503L20.0918 30.5312L20.0155 30.5112L19.9394 30.4904L19.8633 30.4689L19.7875 30.4466L19.7117 30.4235L19.6361 30.3996L19.5607 30.375L19.4854 30.3496L19.4104 30.3234L19.3355 30.2964L19.2608 30.2686L19.1864 30.2401L19.1121 30.2108L19.0381 30.1807L18.9643 30.1499L18.8908 30.1183L18.8175 30.0859L18.7444 30.0528L18.6717 30.0189L18.5991 29.9842L18.5269 29.9488L18.455 29.9126L18.3834 29.8757L18.3121 29.838L18.2411 29.7996L18.1704 29.7604L18.1001 29.7205L18.03 29.6798L17.9604 29.6384L17.8911 29.5963L17.8222 29.5534L17.7536 29.5098L17.6854 29.4655L17.6176 29.4204L17.5502 29.3746L17.4833 29.3281L17.4167 29.2809L17.3505 29.233L17.2848 29.1843L17.2195 29.135L17.1547 29.085L17.0903 29.0342L17.0264 28.9828L16.9629 28.9307L16.8999 28.8779L16.8374 28.8244L16.7754 28.7702L16.7139 28.7154L16.6529 28.6599L16.5924 28.6037L16.5324 28.5469L16.473 28.4894L16.414 28.4313L16.3557 28.3725L16.2979 28.3131L16.2406 28.253L16.1839 28.1924L16.1278 28.131L16.0723 28.0691L16.0173 28.0066L15.963 27.9434L15.9092 27.8797L15.856 27.8153L15.8035 27.7503L15.7516 27.6848L15.7003 27.6187L15.6496 27.552L15.5996 27.4847L15.5503 27.4169L15.5016 27.3485L15.4535 27.2795L15.4061 27.21L15.3594 27.14L15.3134 27.0694L15.2681 26.9983L15.2234 26.9267L15.1795 26.8546L15.1362 26.7819L15.0937 26.7088L15.0519 26.6351L15.0108 26.561L14.9704 26.4864L14.9308 26.4113L14.8919 26.3357L14.8537 26.2597L14.8163 26.1833L14.7797 26.1063L14.7438 26.029L14.7087 25.9512L14.6744 25.873L14.6408 25.7943L14.608 25.7153L14.576 25.6358L14.5448 25.556L14.5144 25.4757L14.4849 25.3951L14.4561 25.3141L14.4281 25.2328L14.4009 25.1511L14.3746 25.069L14.3491 24.9866L14.3244 24.9039L14.3005 24.8208L14.2775 24.7374L14.2554 24.6537L14.234 24.5697L14.2136 24.4854L14.194 24.4009L14.1752 24.316L14.1573 24.2309L14.1403 24.1455L14.1241 24.0599L14.1088 23.974L14.0944 23.8879L14.0809 23.8016L14.0682 23.715L14.0564 23.6283L14.0456 23.5413L14.0356 23.4542L14.0265 23.3668L14.0183 23.2793L14.011 23.1916L14.0046 23.1038L13.9991 23.0158L13.9945 22.9277L13.9908 22.8395L13.988 22.7511L13.9862 22.6626L13.9853 22.5741L13.9852 22.4854L13.9861 22.3966L13.988 22.3078L13.9907 22.2189L13.9944 22.1299L13.999 22.0409L14.0045 21.9519L14.0109 21.8628L14.0183 21.7737L14.0266 21.6846L14.0358 21.5955L14.046 21.5064L14.0571 21.4173L14.0691 21.3283L14.0821 21.2393L14.096 21.1503L14.1109 21.0614L14.1266 20.9725L14.1433 20.8837L14.161 20.795L14.1796 20.7064L14.1991 20.6179L14.2195 20.5295L14.2409 20.4413L14.2632 20.3531L14.2865 20.2651L14.3107 20.1773L14.3358 20.0896L14.3618 20.002L14.3888 19.9147L14.4167 19.8275L14.4455 19.7405L14.4753 19.6538L14.506 19.5672L14.5376 19.4809L14.5701 19.3948L14.6036 19.309L14.638 19.2234L14.6733 19.138L14.7095 19.053L14.7466 18.9682L14.7847 18.8837L14.8236 18.7995L14.8635 18.7156L14.9042 18.6321L14.9459 18.5488L14.9884 18.4659L15.0319 18.3834L15.0762 18.3012L15.1215 18.2194L15.1676 18.1379L15.2146 18.0568L15.2625 17.9762L15.3113 17.8959L15.3609 17.816L15.4115 17.7366L15.4629 17.6575L15.5151 17.5789L15.5682 17.5008L15.6222 17.4231L15.677 17.3459L15.7327 17.2692L15.7892 17.1929L15.8465 17.1171L15.9047 17.0419L15.9637 16.9671L16.0236 16.8929L16.0843 16.8191L16.1457 16.746L16.208 16.6733L16.2711 16.6012L16.335 16.5297L16.3997 16.4587L16.4652 16.3884L16.5315 16.3186L16.5986 16.2494L16.6664 16.1808L16.735 16.1128L16.8044 16.0454L16.8745 15.9787L16.9454 15.9126L17.017 15.8471L17.0893 15.7823L17.1624 15.7181L17.2363 15.6547L17.3108 15.5918L17.3861 15.5297L17.462 15.4683L17.5387 15.4075L17.616 15.3475L17.6941 15.2882L17.7728 15.2296L17.8522 15.1717L17.9323 15.1146L18.013 15.0582L18.0944 15.0025L18.1765 14.9476L18.2591 14.8935L18.3424 14.8402L18.4264 14.7876L18.5109 14.7358L18.5961 14.6848L18.6818 14.6346L18.7682 14.5852L18.8551 14.5366L18.9426 14.4888L19.0307 14.4419L19.1193 14.3958L19.2085 14.3505L19.2982 14.3061L19.3885 14.2625L19.4793 14.2198L19.5706 14.1779L19.6624 14.1369L19.7547 14.0968L19.8476 14.0575L19.9409 14.0191L20.0346 13.9817L20.1289 13.9451L20.2236 13.9094L20.3187 13.8746L20.4143 13.8408L20.5104 13.8078L20.6068 13.7758L20.7037 13.7447L20.8009 13.7145L20.8986 13.6853L20.9966 13.657L21.095 13.6297L21.1938 13.6033L21.2929 13.5778L21.3924 13.5533L21.4922 13.5298L21.5924 13.5073L21.6928 13.4857L21.7936 13.4651L21.8946 13.4455L21.9453 13.4361ZM23.1872 20.6964L22.0346 20.9718L21.9669 15.2623L21.9126 15.2745L21.8308 15.2938L21.7491 15.3139L21.668 15.3347L21.587 15.3563L21.5065 15.3787L21.426 15.402L21.3463 15.4258L21.2664 15.4506L21.1875 15.4759L21.1084 15.5022L21.0298 15.5292L20.9516 15.5569L20.8737 15.5853L20.7965 15.6144L20.7194 15.6444L20.6427 15.675L20.5665 15.7063L20.4904 15.7385L20.4153 15.7711L20.3402 15.8047L20.2658 15.8388L20.1915 15.8738L20.1179 15.9093L20.0445 15.9456L19.9719 15.9825L19.8996 16.0201L19.8278 16.0584L19.7565 16.0973L19.6856 16.1369L19.6152 16.1772L19.5456 16.218L19.4759 16.2597L19.4071 16.3018L19.3389 16.3446L19.2711 16.388L19.2037 16.4321L19.137 16.4768L19.0708 16.5221L19.0051 16.5679L18.9401 16.6143L18.8754 16.6614L18.8114 16.7091L18.748 16.7573L18.6851 16.8061L18.6229 16.8553L18.5613 16.9052L18.5001 16.9557L18.4395 17.0068L18.3797 17.0582L18.3204 17.1103L18.2617 17.1628L18.2036 17.2159L18.1461 17.2696L18.0893 17.3237L18.0331 17.3782L17.9774 17.4334L17.9225 17.4889L17.8682 17.545L17.8146 17.6014L17.7614 17.6586L17.7091 17.7159L17.6574 17.7738L17.6063 17.8322L17.556 17.8908L17.5062 17.9501L17.4573 18.0095L17.4088 18.0697L17.3612 18.13L17.3141 18.1909L17.2678 18.2522L17.2222 18.3137L17.1772 18.3756L17.133 18.4379L17.0894 18.5007L17.0465 18.5637L17.0044 18.6272L16.963 18.6908L16.9223 18.7548L16.8822 18.8193L16.843 18.8839L16.8043 18.9491L16.7665 19.0142L16.7293 19.0799L16.6928 19.1458L16.6572 19.2119L16.6222 19.2783L16.588 19.345L16.5544 19.4121L16.5217 19.4791L16.4896 19.5467L16.4583 19.6143L16.4278 19.6822L16.3979 19.7503L16.3688 19.8187L16.3405 19.8871L16.3129 19.9559L16.2861 20.0248L16.2599 20.0939L16.2346 20.163L16.21 20.2325L16.1861 20.3021L16.163 20.3718L16.1406 20.4416L16.119 20.5117L16.0981 20.5818L16.0781 20.6519L16.0587 20.7223L16.04 20.7928L16.0222 20.8633L16.0051 20.9339L15.9887 21.0046L15.9731 21.0754L15.9583 21.1463L15.9442 21.2171L15.9308 21.288L15.9182 21.3591L15.9064 21.43L15.8953 21.501L15.8849 21.5722L15.8753 21.6431L15.8665 21.7143L15.8584 21.7852L15.851 21.8563L15.8444 21.9275L15.8385 21.9984L15.8334 22.0694L15.829 22.1404L15.8253 22.2112L15.8224 22.282L15.8202 22.3527L15.8188 22.4235L15.818 22.4941L15.8181 22.5646L15.8188 22.635L15.8203 22.7054L15.8225 22.7756L15.8254 22.8457L15.829 22.9157L15.8334 22.9855L15.8385 23.0552L15.8443 23.1248L15.8508 23.1942L15.858 23.2636L15.8659 23.3325L15.8745 23.4016L15.8838 23.4702L15.8939 23.5389L15.9046 23.6072L15.916 23.6754L15.9281 23.7435L15.9409 23.8112L15.9544 23.8788L15.9685 23.946L15.9834 24.0132L15.9989 24.08L16.0151 24.1467L16.0319 24.2129L16.0495 24.2792L16.0676 24.3449L16.0864 24.4106L16.1059 24.4758L16.126 24.5409L16.1468 24.6056L16.1682 24.6699L16.1903 24.7342L16.213 24.798L16.2363 24.8614L16.2602 24.9247L16.2848 24.9876L16.31 25.0501L16.3358 25.1123L16.3621 25.1741L16.3892 25.2357L16.4168 25.2969L16.445 25.3577L16.4738 25.4181L16.5031 25.4781L16.5332 25.538L16.5636 25.5972L16.5947 25.6561L16.6264 25.7147L16.6587 25.7728L16.6915 25.8306L16.7248 25.888L16.7587 25.9448L16.7932 26.0014L16.8281 26.0575L16.8636 26.1131L16.8997 26.1684L16.9362 26.2232L16.9733 26.2777L17.0108 26.3314L17.0489 26.385L17.0875 26.438L17.1265 26.4905L17.1662 26.5427L17.2062 26.5943L17.2467 26.6454L17.2877 26.6961L17.3292 26.7464L17.371 26.796L17.4135 26.8453L17.4563 26.8941L17.4995 26.9423L17.5434 26.9901L17.5874 27.0372L17.632 27.0841L17.677 27.1303L17.7223 27.176L17.7682 27.2212L17.8144 27.2659L17.861 27.3101L17.908 27.3537L17.9554 27.3968L18.0032 27.4394L18.0513 27.4814L18.0998 27.5229L18.1486 27.5639L18.1978 27.6043L18.2474 27.6442L18.2974 27.6835L18.3475 27.7222L18.3981 27.7604L18.449 27.7981L18.5002 27.8352L18.5517 27.8717L18.6035 27.9077L18.6556 27.9431L18.708 27.9779L18.7606 28.0121L18.8135 28.0458L18.8669 28.079L18.9203 28.1114L18.974 28.1434L19.0281 28.1748L19.0822 28.2055L19.1366 28.2357L19.1915 28.2654L19.2464 28.2944L19.3015 28.3228L19.3568 28.3506L19.4125 28.3779L19.4681 28.4045L19.5242 28.4306L19.5803 28.4561L19.6365 28.4809L19.6931 28.5052L19.7498 28.5289L19.8065 28.552L19.8635 28.5745L19.9206 28.5963L19.978 28.6176L20.0352 28.6383L20.0929 28.6584L20.1504 28.6778L20.2081 28.6967L20.266 28.715L20.324 28.7327L20.382 28.7497L20.4401 28.7662L20.4984 28.782L20.5567 28.7973L20.615 28.8119L20.6734 28.826L20.7318 28.8394L20.7903 28.8522L20.8489 28.8645L20.9075 28.8761L20.9661 28.8872L21.0247 28.8976L21.0834 28.9075L21.1421 28.9167L21.2008 28.9254L21.2593 28.9334L21.318 28.9408L21.3766 28.9477L21.4353 28.954L21.4939 28.9596L21.5525 28.9647L21.611 28.9692L21.6694 28.9731L21.7279 28.9764L21.7862 28.9791L21.8444 28.9813L21.9028 28.9828L21.9608 28.9838L22.0188 28.9842L22.0768 28.984L22.1346 28.9833L22.1925 28.9819L22.2502 28.98L22.3076 28.9776L22.365 28.9745L22.4225 28.9709L22.4795 28.9667L22.5366 28.962L22.5934 28.9567L22.6502 28.9509L22.7068 28.9444L22.7631 28.9375L22.8195 28.93L22.8755 28.9219L22.9313 28.9133L22.9872 28.9042L23.0427 28.8945L23.098 28.8843L23.1532 28.8735L23.2082 28.8622L23.2628 28.8504L23.3172 28.8381L23.3716 28.8252L23.4257 28.8118L23.4795 28.798L23.5331 28.7836L23.5864 28.7687L23.6397 28.7532L23.6925 28.7373L23.7449 28.7209L23.7975 28.7039L23.8495 28.6865L23.9013 28.6687L23.9528 28.6503L24.004 28.6314L24.0551 28.612L24.1058 28.5922L24.1561 28.5719L24.2062 28.5512L24.256 28.5299L24.3056 28.5082L24.3546 28.4861L24.4036 28.4635L24.4521 28.4405L24.5002 28.417L24.5482 28.3931L24.5956 28.3688L24.6429 28.344L24.6898 28.3187L24.7363 28.2931L24.7824 28.2671L24.8283 28.2406L24.8738 28.2137L24.9188 28.1864L24.9635 28.1587L25.0079 28.1306L25.0519 28.1022L25.0956 28.0733L25.1388 28.0441L25.1817 28.0144L25.2242 27.9844L25.2662 27.9541L25.3079 27.9233L25.3492 27.8922L25.3901 27.8607L25.4306 27.8289L25.4708 27.7967L25.5104 27.7643L25.5497 27.7315L25.5885 27.6983L25.6269 27.6648L25.665 27.631L25.7026 27.5968L25.7398 27.5624L25.7764 27.5277L25.8128 27.4926L25.8487 27.4572L25.8842 27.4216L25.9192 27.3857L25.9537 27.3494L25.9878 27.313L26.0216 27.2761L26.0547 27.2392L26.0876 27.2018L26.1199 27.1642L26.1517 27.1265L26.1833 27.0883L26.2141 27.0501L26.2447 27.0115L26.2748 26.9728L26.3043 26.9338L26.3335 26.8945L26.3621 26.8552L26.3903 26.8154L26.4181 26.7755L26.4453 26.7356L26.4721 26.6952L26.4985 26.6548L26.5242 26.6142L26.5496 26.5734L26.5745 26.5324L26.5989 26.4912L26.6229 26.4499L26.6463 26.4084L26.6693 26.3668L26.6918 26.3249L26.7138 26.2831L26.7353 26.241L26.7564 26.1988L26.777 26.1565L26.7971 26.1139L26.8167 26.0714L26.8358 26.0287L26.8544 25.986L26.8726 25.943L26.8902 25.9001L26.9075 25.8568L26.9241 25.8139L26.9404 25.7703L26.956 25.7274L26.9713 25.6838L26.9861 25.6402L27.0003 25.5968L27.0141 25.5532L27.0274 25.5097L27.0403 25.4657L27.0525 25.4223L27.0645 25.3782L27.0758 25.3348L27.0867 25.2908L27.0971 25.2468L27.107 25.2031L27.1164 25.1595L27.1254 25.1153L27.1339 25.0716L27.1419 25.0275L27.1494 24.9839L27.1565 24.9401L27.1631 24.8962L27.1692 24.8523L27.1748 24.8085L27.18 24.7649L27.1847 24.7214L27.1889 24.6775L27.1927 24.634L27.196 24.5904L27.1988 24.5469L27.2012 24.5035L27.2031 24.4602L27.2045 24.4171L27.2055 24.3737L27.2061 24.3304L27.2062 24.2875L27.2058 24.2446L27.205 24.2018L27.2037 24.1591L27.202 24.1162L27.1998 24.0741L27.1972 24.0311L27.1942 23.9892L27.1907 23.9471L27.1868 23.9047L27.1824 23.8628L27.1777 23.8213L27.1724 23.7792L27.1668 23.738L27.1607 23.6965L27.1543 23.6556L27.1473 23.6143L27.14 23.5733L27.1323 23.5327L27.1242 23.4922L27.1156 23.4516L27.1066 23.4115L27.0973 23.3714L27.0875 23.3316L27.0774 23.2921L27.0667 23.2523L27.0559 23.2133L27.0445 23.1739L27.0328 23.1352L27.0207 23.0965L27.0082 23.0581L26.9953 23.0198L26.982 22.9816L26.9685 22.944L26.9545 22.9065L26.9401 22.8689L26.9254 22.8319L26.9103 22.7947L26.895 22.7584L26.8791 22.7217L26.8631 22.6856L26.8466 22.6498L26.8298 22.614L26.8127 22.5786L26.7952 22.5434L26.7774 22.5084L26.7593 22.4738L26.7408 22.4394L26.7221 22.4053L26.703 22.3714L26.6835 22.3378L26.6639 22.3045L26.6439 22.2715L26.6235 22.2386L26.6029 22.2063L26.582 22.1741L26.5608 22.1422L26.5393 22.1105L26.5176 22.0793L26.4955 22.0482L26.4732 22.0175L26.4506 21.9871L26.4277 21.957L26.4047 21.9272L26.3812 21.8976L26.3576 21.8685L26.3337 21.8396L26.3096 21.811L26.2852 21.7827L26.2607 21.7548L26.2358 21.7272L26.2107 21.6999L26.1854 21.6728L26.1599 21.6462L26.1341 21.6199L26.1081 21.5938L26.082 21.5682L26.0556 21.5429L26.0291 21.5179L26.0021 21.4931L25.9753 21.4688L25.9481 21.4447L25.9208 21.4211L25.8932 21.3977L25.8655 21.3748L25.8376 21.3521L25.8096 21.3298L25.7814 21.3078L25.753 21.2861L25.7245 21.2649L25.6958 21.2439L25.6669 21.2233L25.638 21.2031L25.6089 21.1831L25.5797 21.1636L25.5503 21.1444L25.5207 21.1255L25.4912 21.107L25.4613 21.0888L25.4315 21.071L25.4016 21.0536L25.3715 21.0365L25.3412 21.0197L25.311 21.0033L25.2807 20.9872L25.2502 20.9715L25.2198 20.9562L25.189 20.9411L25.1584 20.9265L25.1276 20.9123L25.0968 20.8983L25.0659 20.8847L25.0348 20.8714L25.004 20.8586L24.9728 20.8461L24.9416 20.8339L24.9105 20.8221L24.8793 20.8106L24.8481 20.7995L24.8168 20.7887L24.7855 20.7782L24.7543 20.7682L24.7229 20.7584L24.6915 20.749L24.6603 20.74L24.6287 20.7313L24.5975 20.723L24.5661 20.715L24.5347 20.7073L24.5033 20.7L24.472 20.693L24.4406 20.6864L24.4093 20.6801L24.3781 20.6741L24.3469 20.6685L24.3155 20.6632L24.2845 20.6583L24.2531 20.6537L24.2222 20.6494L24.191 20.6454L24.16 20.6418L24.1292 20.6385L24.0982 20.6356L24.0674 20.6329L24.0366 20.6306L24.0059 20.6286L23.9752 20.6269L23.9446 20.6256L23.9143 20.6246L23.8838 20.6238L23.8535 20.6234L23.8232 20.6233L23.7931 20.6236L23.763 20.6241L23.7331 20.6249L23.7032 20.6261L23.6736 20.6275L23.6438 20.6293L23.6144 20.6313L23.585 20.6336L23.5557 20.6363L23.5266 20.6392L23.4974 20.6424L23.4686 20.6459L23.4398 20.6497L23.4112 20.6538L23.3826 20.6582L23.3543 20.6628L23.326 20.6677L23.2981 20.6729L23.27 20.6784L23.2423 20.6841L23.2146 20.6901L23.1872 20.6964Z" fill="#262626"/>
</svg>
