<svg width="168" height="42" viewBox="0 0 168 42" fill="none" xmlns="http://www.w3.org/2000/svg">
<g clip-path="url(#clip0_1_1501)">
<path d="M49.1306 29.2935H61.0826V25.6935H53.3786V12.1335H49.1306V29.2935Z" fill="#262626"/>
<path d="M68.1638 26.8936C66.4598 26.8936 65.5718 25.4056 65.5718 23.1736C65.5718 20.9416 66.4598 19.4296 68.1638 19.4296C69.8678 19.4296 70.7798 20.9416 70.7798 23.1736C70.7798 25.4056 69.8678 26.8936 68.1638 26.8936ZM68.1878 29.6776C72.1478 29.6776 74.7398 26.8696 74.7398 23.1736C74.7398 19.4776 72.1478 16.6696 68.1878 16.6696C64.2518 16.6696 61.6118 19.4776 61.6118 23.1736C61.6118 26.8696 64.2518 29.6776 68.1878 29.6776Z" fill="#262626"/>
<path d="M81.5943 33.5416C83.4183 33.5416 85.0263 33.1336 86.1063 32.1736C87.0903 31.2856 87.7383 29.9416 87.7383 28.0936V17.0056H83.9943V18.3256H83.9463C83.2263 17.2936 82.1223 16.6456 80.4903 16.6456C77.4423 16.6456 75.3303 19.1896 75.3303 22.7896C75.3303 26.5576 77.8983 28.6216 80.6583 28.6216C82.1463 28.6216 83.0823 28.0216 83.8023 27.2056H83.8983V28.4296C83.8983 29.9176 83.2023 30.7816 81.5463 30.7816C80.2503 30.7816 79.6023 30.2296 79.3863 29.5816H75.5943C75.9783 32.1496 78.2103 33.5416 81.5943 33.5416ZM81.5703 25.7176C80.1063 25.7176 79.1463 24.5176 79.1463 22.6696C79.1463 20.7976 80.1063 19.5976 81.5703 19.5976C83.2023 19.5976 84.0663 20.9896 84.0663 22.6456C84.0663 24.3736 83.2743 25.7176 81.5703 25.7176Z" fill="#262626"/>
<path d="M95.4368 26.8936C93.7328 26.8936 92.8448 25.4056 92.8448 23.1736C92.8448 20.9416 93.7328 19.4296 95.4368 19.4296C97.1408 19.4296 98.0528 20.9416 98.0528 23.1736C98.0528 25.4056 97.1408 26.8936 95.4368 26.8936ZM95.4608 29.6776C99.4208 29.6776 102.013 26.8696 102.013 23.1736C102.013 19.4776 99.4208 16.6696 95.4608 16.6696C91.5248 16.6696 88.8848 19.4776 88.8848 23.1736C88.8848 26.8696 91.5248 29.6776 95.4608 29.6776Z" fill="#262626"/>
<path d="M103.155 29.2935H107.067V17.0055H103.155V29.2935ZM103.155 15.3015H107.067V12.1335H103.155V15.3015Z" fill="#262626"/>
<path d="M108.764 33.3496H112.676V28.0216H112.724C113.492 29.0536 114.62 29.6776 116.204 29.6776C119.42 29.6776 121.556 27.1336 121.556 23.1496C121.556 19.4536 119.564 16.6456 116.3 16.6456C114.62 16.6456 113.42 17.3896 112.58 18.4936H112.508V17.0056H108.764V33.3496ZM115.196 26.6536C113.516 26.6536 112.556 25.2856 112.556 23.2936C112.556 21.3016 113.42 19.7896 115.124 19.7896C116.804 19.7896 117.596 21.1816 117.596 23.2936C117.596 25.3816 116.684 26.6536 115.196 26.6536Z" fill="#262626"/>
<path d="M127.926 29.6776C131.142 29.6776 133.518 28.2856 133.518 25.5976C133.518 22.4536 130.974 21.9016 128.814 21.5416C127.254 21.2536 125.862 21.1336 125.862 20.2696C125.862 19.5016 126.606 19.1416 127.566 19.1416C128.646 19.1416 129.39 19.4776 129.534 20.5816H133.134C132.942 18.1576 131.07 16.6456 127.59 16.6456C124.686 16.6456 122.286 17.9896 122.286 20.5816C122.286 23.4616 124.566 24.0376 126.702 24.3976C128.334 24.6856 129.822 24.8056 129.822 25.9096C129.822 26.7016 129.078 27.1336 127.902 27.1336C126.606 27.1336 125.79 26.5336 125.646 25.3096H121.95C122.07 28.0216 124.326 29.6776 127.926 29.6776Z" fill="#262626"/>
<path d="M138.831 29.6536C140.535 29.6536 141.615 28.9816 142.503 27.7816H142.575V29.2936H146.319V17.0056H142.407V23.8696C142.407 25.3336 141.591 26.3416 140.247 26.3416C138.999 26.3416 138.399 25.5976 138.399 24.2536V17.0056H134.511V25.0696C134.511 27.8056 135.999 29.6536 138.831 29.6536Z" fill="#262626"/>
<path d="M148.021 29.2936H151.933V22.4056C151.933 20.9416 152.653 19.9096 153.877 19.9096C155.053 19.9096 155.605 20.6776 155.605 21.9976V29.2936H159.517V22.4056C159.517 20.9416 160.213 19.9096 161.461 19.9096C162.637 19.9096 163.189 20.6776 163.189 21.9976V29.2936H167.101V21.3016C167.101 18.5416 165.709 16.6456 162.925 16.6456C161.341 16.6456 160.021 17.3176 159.061 18.8056H159.013C158.389 17.4856 157.165 16.6456 155.557 16.6456C153.781 16.6456 152.605 17.4856 151.837 18.7576H151.765V17.0056H148.021V29.2936Z" fill="#262626"/>
<path fill-rule="evenodd" clip-rule="evenodd" d="M9.15405 4.39144C7.72339 5.3918 6.42969 6.57455 5.30664 7.90597C9.89594 7.4799 15.7265 8.17562 22.4957 11.5603C29.7243 15.1745 35.5451 15.2967 39.5961 14.5153C39.2285 13.4024 38.7657 12.3328 38.2176 11.316C33.5803 11.8051 27.6353 11.1577 20.7069 7.69355C16.3073 5.49375 12.4291 4.58758 9.15405 4.39144ZM35.5087 7.46022C31.8466 3.36857 26.5247 0.793579 20.6013 0.793579C18.8618 0.793579 17.174 1.01569 15.565 1.43306C17.7442 2.02766 20.0592 2.89756 22.4957 4.11584C27.5683 6.6521 31.9477 7.46873 35.5087 7.46022ZM40.4622 18.4217C35.5682 19.3881 28.8101 19.1896 20.7069 15.138C13.1313 11.3502 7.10175 11.3979 3.03522 12.3016C2.82532 12.3482 2.62036 12.3972 2.42035 12.4482C1.88794 13.6061 1.46295 14.8237 1.15802 16.0881C1.4837 16.0011 1.82025 15.9184 2.16748 15.8412C7.10089 14.7449 14.0714 14.7925 22.4957 19.0047C30.0714 22.7925 36.1009 22.7448 40.1675 21.8411C40.3068 21.8102 40.4441 21.7782 40.5791 21.7452C40.5939 21.4299 40.6013 21.1126 40.6013 20.7936C40.6013 19.9911 40.5541 19.1996 40.4622 18.4217ZM39.9261 25.9659C35.0796 26.8132 28.5183 26.488 20.7069 22.5824C13.1313 18.7946 7.10175 18.8423 3.03522 19.746C2.13257 19.9465 1.32056 20.1908 0.604248 20.4487C0.602295 20.5634 0.601318 20.6784 0.601318 20.7936C0.601318 31.8393 9.55561 40.7936 20.6013 40.7936C29.8584 40.7936 37.6466 34.5045 39.9261 25.9659Z" fill="#262626"/>
</g>
<defs>
<clipPath id="clip0_1_1501">
<rect width="167" height="41" fill="white" transform="translate(0.5 0.5)"/>
</clipPath>
</defs>
</svg>
