<svg width="171" height="42" viewBox="0 0 171 42" fill="none" xmlns="http://www.w3.org/2000/svg">
<g clip-path="url(#clip0_1_1512)">
<path d="M52.3601 28.638H64.3121V25.038H56.6081V11.478H52.3601V28.638Z" fill="#262626"/>
<path d="M71.3933 26.238C69.6893 26.238 68.8013 24.75 68.8013 22.518C68.8013 20.286 69.6893 18.774 71.3933 18.774C73.0973 18.774 74.0093 20.286 74.0093 22.518C74.0093 24.75 73.0973 26.238 71.3933 26.238ZM71.4173 29.022C75.3773 29.022 77.9693 26.214 77.9693 22.518C77.9693 18.822 75.3773 16.014 71.4173 16.014C67.4813 16.014 64.8413 18.822 64.8413 22.518C64.8413 26.214 67.4813 29.022 71.4173 29.022Z" fill="#262626"/>
<path d="M84.8238 32.886C86.6478 32.886 88.2558 32.478 89.3358 31.518C90.3198 30.63 90.9678 29.286 90.9678 27.438V16.35H87.2238V17.67H87.1758C86.4558 16.638 85.3518 15.99 83.7198 15.99C80.6718 15.99 78.5598 18.534 78.5598 22.134C78.5598 25.902 81.1278 27.966 83.8878 27.966C85.3758 27.966 86.3118 27.366 87.0318 26.55H87.1278V27.774C87.1278 29.262 86.4318 30.126 84.7758 30.126C83.4798 30.126 82.8318 29.574 82.6158 28.926H78.8238C79.2078 31.494 81.4398 32.886 84.8238 32.886ZM84.7998 25.062C83.3358 25.062 82.3758 23.862 82.3758 22.014C82.3758 20.142 83.3358 18.942 84.7998 18.942C86.4318 18.942 87.2958 20.334 87.2958 21.99C87.2958 23.718 86.5038 25.062 84.7998 25.062Z" fill="#262626"/>
<path d="M98.666 26.238C96.962 26.238 96.074 24.75 96.074 22.518C96.074 20.286 96.962 18.774 98.666 18.774C100.37 18.774 101.282 20.286 101.282 22.518C101.282 24.75 100.37 26.238 98.666 26.238ZM98.69 29.022C102.65 29.022 105.242 26.214 105.242 22.518C105.242 18.822 102.65 16.014 98.69 16.014C94.754 16.014 92.114 18.822 92.114 22.518C92.114 26.214 94.754 29.022 98.69 29.022Z" fill="#262626"/>
<path d="M106.384 28.638H110.296V16.35H106.384V28.638ZM106.384 14.646H110.296V11.478H106.384V14.646Z" fill="#262626"/>
<path d="M111.994 32.694H115.906V27.366H115.954C116.722 28.398 117.85 29.022 119.434 29.022C122.65 29.022 124.786 26.478 124.786 22.494C124.786 18.798 122.794 15.99 119.53 15.99C117.85 15.99 116.65 16.734 115.81 17.838H115.738V16.35H111.994V32.694ZM118.426 25.998C116.746 25.998 115.786 24.63 115.786 22.638C115.786 20.646 116.65 19.134 118.354 19.134C120.034 19.134 120.826 20.526 120.826 22.638C120.826 24.726 119.914 25.998 118.426 25.998Z" fill="#262626"/>
<path d="M131.155 29.022C134.371 29.022 136.747 27.63 136.747 24.942C136.747 21.798 134.203 21.246 132.043 20.886C130.483 20.598 129.091 20.478 129.091 19.614C129.091 18.846 129.835 18.486 130.795 18.486C131.875 18.486 132.619 18.822 132.763 19.926H136.363C136.171 17.502 134.299 15.99 130.819 15.99C127.915 15.99 125.515 17.334 125.515 19.926C125.515 22.806 127.795 23.382 129.931 23.742C131.563 24.03 133.051 24.15 133.051 25.254C133.051 26.046 132.307 26.478 131.131 26.478C129.835 26.478 129.019 25.878 128.875 24.654H125.179C125.299 27.366 127.555 29.022 131.155 29.022Z" fill="#262626"/>
<path d="M142.061 28.998C143.765 28.998 144.845 28.326 145.733 27.126H145.805V28.638H149.549V16.35H145.637V23.214C145.637 24.678 144.821 25.686 143.477 25.686C142.229 25.686 141.629 24.942 141.629 23.598V16.35H137.741V24.414C137.741 27.15 139.229 28.998 142.061 28.998Z" fill="#262626"/>
<path d="M151.25 28.638H155.162V21.75C155.162 20.286 155.882 19.254 157.106 19.254C158.282 19.254 158.834 20.022 158.834 21.342V28.638H162.746V21.75C162.746 20.286 163.442 19.254 164.69 19.254C165.866 19.254 166.418 20.022 166.418 21.342V28.638H170.33V20.646C170.33 17.886 168.938 15.99 166.154 15.99C164.57 15.99 163.25 16.662 162.29 18.15H162.242C161.618 16.83 160.394 15.99 158.786 15.99C157.01 15.99 155.834 16.83 155.066 18.102H154.994V16.35H151.25V28.638Z" fill="#262626"/>
<path fill-rule="evenodd" clip-rule="evenodd" d="M21.1841 40.638C32.2298 40.638 41.1841 31.6837 41.1841 20.638C41.1841 9.59237 32.2298 0.638062 21.1841 0.638062C10.1384 0.638062 1.18408 9.59237 1.18408 20.638C1.18408 31.6837 10.1384 40.638 21.1841 40.638ZM27.4234 9.9549C27.7271 8.87611 26.6802 8.23819 25.7241 8.91936L12.3772 18.4276C11.3403 19.1663 11.5034 20.638 12.6222 20.638H16.1368V20.6108H22.9866L17.4053 22.5801L14.9448 31.3212C14.6411 32.4 15.6879 33.0379 16.6441 32.3567L29.991 22.8485C31.0279 22.1098 30.8647 20.638 29.746 20.638H24.4162L27.4234 9.9549Z" fill="#262626"/>
</g>
<defs>
<clipPath id="clip0_1_1512">
<rect width="170" height="41" fill="white" transform="translate(0.5 0.5)"/>
</clipPath>
</defs>
</svg>
