<svg width="219" height="40" viewBox="0 0 219 40" fill="none" xmlns="http://www.w3.org/2000/svg">
<g clip-path="url(#clip0_1_1523)">
<path d="M122.855 29.5238H127.518V11.9352H122.855V29.5238ZM122.855 9.19238H127.518V5.00952H122.855V9.19238Z" fill="#262626"/>
<path d="M130.523 35.2838H135.186V27.5352H135.254C136.248 29.0438 137.86 30.0381 140.328 30.0381C144.854 30.0381 147.94 26.4381 147.94 20.7467C147.94 15.2609 144.957 11.4552 140.294 11.4552C137.894 11.4552 136.248 12.5867 135.117 14.1295H135.014V11.9352H130.523V35.2838ZM139.334 26.1638C136.557 26.1638 135.083 24.0724 135.083 20.8838C135.083 17.7295 136.248 15.2267 139.163 15.2267C142.043 15.2267 143.208 17.5581 143.208 20.8838C143.208 24.2095 141.7 26.1638 139.334 26.1638Z" fill="#262626"/>
<path d="M157.241 30.0381C161.63 30.0381 164.647 27.9124 164.647 24.3809C164.647 20.2667 161.39 19.4438 158.441 18.8267C155.938 18.3124 153.607 18.1752 153.607 16.6667C153.607 15.3981 154.807 14.7124 156.624 14.7124C158.613 14.7124 159.813 15.3981 160.018 17.2838H164.235C163.893 13.7524 161.321 11.4552 156.693 11.4552C152.681 11.4552 149.527 13.2724 149.527 17.0781C149.527 20.9181 152.613 21.7752 155.767 22.3924C158.167 22.8724 160.395 23.0438 160.395 24.7238C160.395 25.9581 159.23 26.7467 157.173 26.7467C155.081 26.7467 153.641 25.8552 153.333 23.8324H149.013C149.287 27.5695 152.133 30.0381 157.241 30.0381Z" fill="#262626"/>
<path d="M182.35 29.5238V11.9352H177.687V22.0838C177.687 24.4152 176.35 26.0609 174.156 26.0609C172.167 26.0609 171.242 24.9295 171.242 22.8724V11.9352H166.613V23.6609C166.613 27.5009 168.807 30.0038 172.716 30.0038C175.185 30.0038 176.556 29.0781 177.756 27.4667H177.859V29.5238H182.35Z" fill="#262626"/>
<path d="M185.366 29.5238H190.029V19.3067C190.029 16.9752 191.298 15.4667 193.184 15.4667C194.898 15.4667 195.892 16.4952 195.892 18.4838V29.5238H200.555V19.3067C200.555 16.9752 201.755 15.4667 203.709 15.4667C205.424 15.4667 206.418 16.4952 206.418 18.4838V29.5238H211.081V17.6952C211.081 13.8552 208.989 11.4552 205.286 11.4552C203.058 11.4552 201.206 12.6209 200.006 14.5409H199.938C199.081 12.6895 197.298 11.4552 195.069 11.4552C192.635 11.4552 190.921 12.6895 189.961 14.3009H189.858V11.9352H185.366V29.5238Z" fill="#262626"/>
<path d="M1.32422 29.5238H5.98707V5.00952H1.32422V29.5238Z" fill="#262626"/>
<path d="M17.3883 30.0381C22.8397 30.0381 26.5768 25.9924 26.5768 20.7467C26.5768 15.5009 22.8397 11.4552 17.3883 11.4552C11.9368 11.4552 8.19971 15.5009 8.19971 20.7467C8.19971 25.9924 11.9368 30.0381 17.3883 30.0381ZM17.3883 26.4724C14.5083 26.4724 12.9311 24.1752 12.9311 20.7467C12.9311 17.3181 14.5083 14.9867 17.3883 14.9867C20.234 14.9867 21.8454 17.3181 21.8454 20.7467C21.8454 24.1752 20.234 26.4724 17.3883 26.4724Z" fill="#262626"/>
<path d="M36.4929 35.5238C39.0986 35.5238 41.3615 34.9067 42.8357 33.5352C44.1386 32.3352 44.9272 30.6552 44.9272 28.1867V11.9352H40.4358V13.7867H40.3672C39.3043 12.3124 37.6929 11.4552 35.4986 11.4552C31.0415 11.4552 27.8872 14.8152 27.8872 20.0609C27.8872 25.3752 31.7272 28.4609 35.6358 28.4609C37.8643 28.4609 39.2015 27.5695 40.23 26.4038H40.3329V28.3238C40.3329 30.7238 39.0643 31.9924 36.4243 31.9924C34.2643 31.9924 33.27 31.1352 32.8929 30.0381H28.2643C28.7443 33.4667 31.6929 35.5238 36.4929 35.5238ZM36.4243 24.7238C34.0243 24.7238 32.4472 22.9752 32.4472 19.9924C32.4472 17.0438 34.0243 15.1924 36.39 15.1924C39.2015 15.1924 40.5729 17.3867 40.5729 19.9581C40.5729 22.5638 39.3729 24.7238 36.4243 24.7238Z" fill="#262626"/>
<path d="M56.2611 30.0381C61.7125 30.0381 65.4497 25.9924 65.4497 20.7467C65.4497 15.5009 61.7125 11.4552 56.2611 11.4552C50.8097 11.4552 47.0725 15.5009 47.0725 20.7467C47.0725 25.9924 50.8097 30.0381 56.2611 30.0381ZM56.2611 26.4724C53.3811 26.4724 51.804 24.1752 51.804 20.7467C51.804 17.3181 53.3811 14.9867 56.2611 14.9867C59.1068 14.9867 60.7183 17.3181 60.7183 20.7467C60.7183 24.1752 59.1068 26.4724 56.2611 26.4724Z" fill="#262626"/>
<path d="M212.775 9.04759C212.775 8.25861 213.415 7.61902 214.204 7.61902H217.061C217.85 7.61902 218.49 8.25861 218.49 9.04759C218.49 9.83657 217.85 10.4762 217.061 10.4762H214.204C213.415 10.4762 212.775 9.83657 212.775 9.04759Z" fill="#262626"/>
<path fill-rule="evenodd" clip-rule="evenodd" d="M93.7278 0C104.773 0 113.728 8.95431 113.728 20C113.728 31.0457 104.773 40 93.7278 40C82.6821 40 73.7278 31.0457 73.7278 20C73.7278 8.95431 82.6821 0 93.7278 0ZM93.0049 1.49659C90.7232 1.81769 88.5506 3.65108 86.8641 6.7174C86.3749 7.60683 85.9335 8.58946 85.5489 9.65044C87.8421 9.07417 90.3612 8.73442 93.0049 8.68187V1.49659ZM83.8585 10.1308C84.3369 8.62958 84.922 7.2484 85.5973 6.02065C86.4333 4.50059 87.4255 3.18795 88.5434 2.17977C82.4645 3.94523 77.673 8.73679 75.9075 14.8157C76.9157 13.6978 78.2283 12.7056 79.7484 11.8696C80.9762 11.1943 82.3573 10.6091 83.8585 10.1308ZM83.3782 11.8211C82.8019 14.1143 82.4622 16.6334 82.4096 19.2771H75.2243C75.5454 16.9954 77.3788 14.8228 80.4452 13.1364C81.3346 12.6472 82.3172 12.2058 83.3782 11.8211ZM83.8557 19.2771C83.9154 16.392 84.3308 13.6834 85.018 11.2902C87.4112 10.603 90.1198 10.1876 93.0049 10.1279V13.2508C91.9286 16.0062 89.7334 18.2012 86.9779 19.2771H83.8557ZM82.4096 20.7229H75.2243C75.5454 23.0046 77.3788 25.1771 80.4452 26.8636C81.3346 27.3528 82.3172 27.7942 83.3782 28.1789C82.8019 25.8857 82.4622 23.3666 82.4096 20.7229ZM85.018 28.7098C84.3308 26.3166 83.9154 23.608 83.8557 20.7229H86.9779C89.7334 21.7988 91.9286 23.9938 93.0049 26.7492V29.8721C90.1198 29.8124 87.4112 29.397 85.018 28.7098ZM83.8585 29.8692C82.3573 29.3909 80.9762 28.8057 79.7484 28.1304C78.2283 27.2944 76.9157 26.3022 75.9075 25.1843C77.673 31.2632 82.4645 36.0548 88.5434 37.8202C87.4255 36.812 86.4333 35.4994 85.5973 33.9793C84.922 32.7516 84.3369 31.3704 83.8585 29.8692ZM93.0049 38.5034C90.7232 38.1823 88.5506 36.3489 86.8641 33.2826C86.3749 32.3932 85.9335 31.4105 85.5489 30.3496C87.8421 30.9258 90.3612 31.2656 93.0049 31.3181V38.5034ZM98.9121 37.8202C100.03 36.812 101.022 35.4994 101.858 33.9793C102.533 32.7516 103.119 31.3704 103.597 29.8692C105.098 29.3909 106.479 28.8057 107.707 28.1304C109.227 27.2944 110.54 26.3022 111.548 25.1843C109.782 31.2632 104.991 36.0548 98.9121 37.8202ZM101.907 30.3496C101.522 31.4105 101.08 32.3932 100.591 33.2826C98.9049 36.3489 96.7323 38.1823 94.4506 38.5034V31.3181C97.0943 31.2656 99.6134 30.9258 101.907 30.3496ZM104.077 28.1789C105.138 27.7942 106.121 27.3528 107.01 26.8636C110.077 25.1772 111.91 23.0046 112.231 20.7229H105.046C104.993 23.3666 104.653 25.8857 104.077 28.1789ZM103.6 20.7229C103.54 23.608 103.125 26.3166 102.437 28.7098C100.044 29.397 97.3357 29.8124 94.4506 29.8721V26.7515C95.5266 23.9951 97.7223 21.7991 100.478 20.7229H103.6ZM105.046 19.2771H112.231C111.91 16.9954 110.077 14.8228 107.01 13.1364C106.121 12.6472 105.138 12.2058 104.077 11.8211C104.653 14.1143 104.993 16.6334 105.046 19.2771ZM102.437 11.2902C103.125 13.6834 103.54 16.392 103.6 19.2771H100.479C97.7223 18.2009 95.5266 16.0049 94.4506 13.2485V10.1279C97.3357 10.1876 100.044 10.603 102.437 11.2902ZM103.597 10.1308C105.098 10.6091 106.479 11.1943 107.707 11.8696C109.227 12.7056 110.54 13.6978 111.548 14.8157C109.782 8.73679 104.991 3.94523 98.9121 2.17977C100.03 3.18795 101.022 4.50059 101.858 6.02065C102.533 7.2484 103.119 8.62958 103.597 10.1308ZM94.4506 1.49659C96.7323 1.81769 98.9049 3.65108 100.591 6.7174C101.08 7.60684 101.522 8.58946 101.907 9.65044C99.6134 9.07417 97.0943 8.73442 94.4506 8.68187V1.49659Z" fill="#262626"/>
</g>
<defs>
<clipPath id="clip0_1_1523">
<rect width="218" height="40" fill="white" transform="translate(0.5)"/>
</clipPath>
</defs>
</svg>
